<?xml version="1.0" encoding="UTF-8"?><svg id="a" xmlns="http://www.w3.org/2000/svg" xmlns:xlink="http://www.w3.org/1999/xlink" viewBox="0 0 2314 1167"><defs><style>.g,.h,.i,.j,.k,.l,.m{fill:none;}.n{fill:#f2eb80;}.n,.o,.p,.q,.h,.r,.s,.i,.j,.k,.l,.t{stroke-miterlimit:10;}.n,.p,.h,.r,.l,.t{stroke:#626c87;}.n,.h,.t{stroke-width:3.21px;}.o{stroke-width:2.52px;}.o,.u,.p,.q,.s,.t{fill:#fff;}.o,.s,.i,.m{stroke:#48a69e;}.v{fill:#326de6;}.w{fill:#646e85;}.x{fill:#636d88;}.y{fill:#5c5c5c;}.a`{fill:#626c87;}.aa{fill:#48a69e;}.p,.r,.l{stroke-width:3.31px;}.q,.i,.j{stroke-width:2px;}.q,.j,.k{stroke:#646e85;}.r{fill:url(#e);}.s{stroke-width:2.2px;}.k{opacity:.5;stroke-width:2.02px;}.ab{fill:#003459;fill-rule:evenodd;}.ac{clip-path:url(#c);}.ad{clip-path:url(#d);}.m{stroke-linejoin:round;stroke-width:2.43px;}</style><clipPath id="c"><rect class="g" x="1958" y="118" width="92.91" height="90.48"/></clipPath><clipPath id="d"><rect class="g" x="1958" y="118" width="92.91" height="90.48"/></clipPath><linearGradient id="e" x1="2039.87" y1="757.39" x2="2039.87" y2="704.34" gradientTransform="matrix(1, 0, 0, 1, 0, 0)" gradientUnits="userSpaceOnUse"><stop offset="0" stop-color="#4aa69e" stop-opacity=".8"/><stop offset=".09" stop-color="#5cafa7" stop-opacity=".82"/><stop offset=".54" stop-color="#b3d9d6" stop-opacity=".92"/><stop offset=".85" stop-color="#e9f4f3" stop-opacity=".98"/><stop offset="1" stop-color="#fff"/></linearGradient></defs><rect class="u" x="-7" y="-1" width="2325" height="1168"/><rect class="i" x="675" y="116.5" width="155" height="983" rx="13.97" ry="13.97"/><g><g><path class="ab" d="M1367.17,234.28h21.59l11.21,14.09-1.93,4.8h-27.89l.68-4.8-6.57-10.37,2.91-3.72Zm15.45-61.91l11.57-.02,51.99,61.98-4.04,18.84h-22.28l1.39-5.31-48.58-57.93,9.96-17.57Zm20.44-25.21l24.17,18.99-3.09,3.19,4.19,5.84v6.24l-12.05,9.82-20.26-23.94h-11.8l4.75-8.71,14.09-11.44h0Zm-50.73,60.84l16.86-14.65,22.38,26.93-6.35,9.86h-20.63l-14.27,18.73-3.26,4.31h-18.49v-22.98l17.24-22.2h6.54Z"/><g><path class="w" d="M1286.74,296.48l-2.61,2.71v7.21h-2.81v-21.33h2.81v10.55l9.48-10.55h3.4l-8.39,9.42,9.05,11.91h-3.37l-7.56-9.92Z"/><path class="w" d="M1298.59,298.33c0-1.55,.3-2.95,.92-4.19s1.46-2.2,2.55-2.87,2.33-1.01,3.73-1.01c2.16,0,3.9,.75,5.24,2.24,1.33,1.49,2,3.48,2,5.96v.19c0,1.54-.3,2.93-.89,4.15s-1.44,2.18-2.53,2.86c-1.1,.68-2.36,1.03-3.79,1.03-2.15,0-3.89-.75-5.22-2.24-1.33-1.49-2-3.47-2-5.93v-.19Zm2.72,.32c0,1.76,.41,3.17,1.22,4.23,.81,1.06,1.91,1.6,3.27,1.6s2.47-.54,3.28-1.62,1.22-2.59,1.22-4.53c0-1.74-.41-3.15-1.24-4.23-.83-1.08-1.92-1.62-3.29-1.62s-2.42,.53-3.24,1.6-1.23,2.59-1.23,4.57Z"/><path class="w" d="M1318.98,290.55l.09,1.99c1.21-1.52,2.79-2.29,4.75-2.29,3.35,0,5.04,1.89,5.07,5.67v10.47h-2.71v-10.49c0-1.14-.27-1.99-.78-2.53-.51-.55-1.31-.82-2.4-.82-.88,0-1.65,.23-2.31,.7s-1.18,1.08-1.55,1.85v11.29h-2.71v-15.85h2.56Z"/><path class="w" d="M1332.33,298.34c0-2.47,.57-4.44,1.71-5.9s2.66-2.19,4.54-2.19,3.44,.68,4.53,2.05l.13-1.76h2.48v15.47c0,2.05-.61,3.67-1.82,4.85-1.21,1.18-2.85,1.77-4.9,1.77-1.14,0-2.26-.24-3.35-.73s-1.93-1.16-2.5-2.01l1.41-1.63c1.16,1.44,2.58,2.15,4.26,2.15,1.32,0,2.35-.37,3.08-1.11,.74-.74,1.11-1.79,1.11-3.13v-1.36c-1.08,1.25-2.56,1.88-4.44,1.88s-3.36-.75-4.5-2.24-1.72-3.53-1.72-6.11Zm2.72,.31c0,1.79,.37,3.19,1.1,4.21s1.76,1.53,3.08,1.53c1.71,0,2.96-.78,3.76-2.33v-7.24c-.83-1.51-2.08-2.27-3.74-2.27-1.32,0-2.35,.51-3.09,1.54s-1.11,2.54-1.11,4.56Z"/><path class="w" d="M1369.43,300.82h-8.94l-2.01,5.58h-2.9l8.14-21.33h2.46l8.16,21.33h-2.89l-2.04-5.58Zm-8.09-2.3h7.25l-3.63-9.98-3.62,9.98Z"/><path class="w" d="M1376.14,298.34c0-2.43,.58-4.39,1.73-5.87s2.66-2.22,4.53-2.22,3.33,.63,4.41,1.9v-8.26h2.71v22.5h-2.49l-.13-1.7c-1.08,1.33-2.59,1.99-4.53,1.99s-3.33-.75-4.49-2.26c-1.16-1.5-1.74-3.47-1.74-5.89v-.21Zm2.71,.31c0,1.8,.37,3.2,1.11,4.22s1.77,1.52,3.08,1.52c1.72,0,2.97-.77,3.76-2.31v-7.28c-.81-1.49-2.06-2.24-3.74-2.24-1.33,0-2.36,.51-3.11,1.54s-1.11,2.54-1.11,4.56Z"/><path class="w" d="M1396.27,290.55l.07,1.76c1.16-1.37,2.73-2.05,4.7-2.05,2.22,0,3.73,.85,4.53,2.55,.53-.76,1.21-1.38,2.06-1.85s1.84-.7,3-.7c3.48,0,5.24,1.84,5.3,5.52v10.62h-2.71v-10.46c0-1.13-.26-1.98-.78-2.54s-1.39-.84-2.61-.84c-1.01,0-1.84,.3-2.5,.9s-1.05,1.41-1.16,2.42v10.52h-2.72v-10.39c0-2.3-1.13-3.46-3.38-3.46-1.78,0-2.99,.76-3.65,2.27v11.57h-2.71v-15.85h2.56Z"/><path class="w" d="M1420.03,286.35c0-.44,.13-.81,.4-1.11,.27-.3,.67-.45,1.19-.45s.93,.15,1.2,.45,.41,.67,.41,1.11-.14,.81-.41,1.1-.67,.44-1.2,.44-.93-.15-1.19-.44c-.27-.29-.4-.66-.4-1.1Zm2.93,20.05h-2.71v-15.85h2.71v15.85Z"/><path class="w" d="M1429.86,290.55l.09,1.99c1.21-1.52,2.79-2.29,4.75-2.29,3.35,0,5.04,1.89,5.07,5.67v10.47h-2.71v-10.49c0-1.14-.27-1.99-.78-2.53-.51-.55-1.31-.82-2.4-.82-.88,0-1.65,.23-2.31,.7s-1.18,1.08-1.55,1.85v11.29h-2.71v-15.85h2.56Z"/><path class="w" d="M1463.48,300.82h-8.94l-2.01,5.58h-2.9l8.14-21.33h2.46l8.16,21.33h-2.89l-2.04-5.58Zm-8.09-2.3h7.25l-3.63-9.98-3.62,9.98Z"/><path class="w" d="M1474.08,298.05v8.35h-2.81v-21.33h7.87c2.33,0,4.16,.6,5.49,1.79,1.32,1.19,1.98,2.77,1.98,4.73,0,2.07-.65,3.66-1.94,4.78s-3.15,1.68-5.56,1.68h-5.02Zm0-2.3h5.05c1.5,0,2.66-.35,3.46-1.06,.8-.71,1.2-1.73,1.2-3.07,0-1.27-.4-2.29-1.2-3.05-.8-.76-1.9-1.16-3.3-1.19h-5.21v8.38Z"/><path class="w" d="M1493.21,306.4h-2.81v-21.33h2.81v21.33Z"/></g></g><rect class="j" x="1208.86" y="116.34" width="357" height="229" rx="9.35" ry="9.35"/></g><g><g><g><g><path class="h" d="M1451.34,459.32h28.1c3.92,0,7.13,3.21,7.13,7.13v21.89c0,3.92-3.21,7.13-7.13,7.13h-184.16c-3.92,0-7.13-3.21-7.13-7.13v-21.89c0-3.92,3.21-7.13,7.13-7.13h21.35"/><line class="t" x1="1316.64" y1="459.32" x2="1324.57" y2="459.32"/><circle class="a`" cx="1467.36" cy="477.02" r="3.92"/><g><line class="n" x1="1300.77" y1="469.26" x2="1300.77" y2="485.53"/><line class="n" x1="1308.7" y1="469.26" x2="1308.7" y2="485.53"/><line class="n" x1="1316.64" y1="469.26" x2="1316.64" y2="485.53"/><line class="n" x1="1324.57" y1="469.26" x2="1324.57" y2="485.53"/></g></g><g><path class="a`" d="M1418.83,434.43l-.8,.8c-4.51,4.51-10.18,7.1-15.56,7.1-8.53,0-14.72-6.23-14.72-14.81s6.04-14.8,14.37-14.8c4.82,0,10.53,2.25,14.55,5.72l.81,.7,7.98-8.34-.9-.77c-6.13-5.26-14.84-8.41-23.29-8.41-9.31,0-17.2,4.23-21.88,10.93h-14.71l-.86,7.24h12.08c-.39,1.31-.66,2.67-.84,4.07h-18.08l-.86,7.24h18.94c.18,1.4,.45,2.76,.82,4.06h-27.22l-.86,7.24h31.52c4.69,6.75,12.68,10.93,22.31,10.93,12.09,0,20.52-6.18,24.46-9.87l.84-.79-8.09-8.27Z"/><polygon class="a`" points="1354.93 423.88 1349.6 423.88 1348.74 431.12 1354.07 431.12 1354.93 423.88"/></g></g><g><path class="w" d="M1280.39,548.17c-.26,2.26-1.1,4-2.5,5.22s-3.26,1.84-5.59,1.84c-2.52,0-4.54-.9-6.06-2.71-1.52-1.81-2.28-4.22-2.28-7.25v-2.05c0-1.98,.35-3.73,1.06-5.23s1.71-2.66,3.01-3.46,2.8-1.21,4.51-1.21c2.27,0,4.08,.63,5.45,1.9s2.16,3.02,2.39,5.25h-2.83c-.24-1.7-.77-2.94-1.59-3.7-.82-.76-1.96-1.15-3.42-1.15-1.8,0-3.21,.66-4.23,1.99-1.02,1.33-1.53,3.22-1.53,5.67v2.07c0,2.32,.48,4.16,1.45,5.53s2.32,2.05,4.06,2.05c1.56,0,2.76-.35,3.6-1.06,.84-.71,1.39-1.94,1.66-3.7h2.83Z"/><path class="w" d="M1293.59,553.37c-1.05,1.24-2.6,1.86-4.64,1.86-1.69,0-2.98-.49-3.86-1.47s-1.33-2.43-1.34-4.36v-10.31h2.71v10.24c0,2.4,.98,3.6,2.93,3.6,2.07,0,3.45-.77,4.13-2.31v-11.53h2.71v15.85h-2.58l-.06-1.57Z"/><path class="w" d="M1308,541.52c-.41-.07-.85-.1-1.33-.1-1.78,0-2.98,.76-3.62,2.27v11.25h-2.71v-15.85h2.64l.04,1.83c.89-1.42,2.15-2.12,3.78-2.12,.53,0,.93,.07,1.2,.21v2.52Z"/><path class="w" d="M1310.51,534.89c0-.44,.13-.81,.4-1.11,.27-.3,.67-.45,1.19-.45s.93,.15,1.2,.45,.41,.67,.41,1.11-.14,.81-.41,1.1-.67,.44-1.2,.44-.93-.15-1.19-.44c-.27-.29-.4-.66-.4-1.1Zm2.93,20.05h-2.71v-15.85h2.71v15.85Z"/><path class="w" d="M1321.45,535.25v3.84h2.96v2.09h-2.96v9.84c0,.64,.13,1.11,.4,1.43s.71,.48,1.35,.48c.31,0,.74-.06,1.29-.18v2.18c-.71,.19-1.41,.29-2.08,.29-1.21,0-2.12-.37-2.74-1.1s-.92-1.77-.92-3.12v-9.83h-2.89v-2.09h2.89v-3.84h2.71Z"/><path class="w" d="M1332.76,550.97l3.69-11.88h2.9l-6.37,18.3c-.99,2.64-2.55,3.96-4.7,3.96l-.51-.04-1.01-.19v-2.2l.73,.06c.92,0,1.63-.19,2.15-.56,.51-.37,.93-1.05,1.27-2.04l.6-1.61-5.65-15.67h2.96l3.96,11.88Z"/><path class="w" d="M1361.4,549.36h-8.94l-2.01,5.58h-2.9l8.14-21.33h2.46l8.16,21.33h-2.89l-2.04-5.58Zm-8.09-2.3h7.25l-3.63-9.98-3.62,9.98Z"/><path class="w" d="M1368.11,546.89c0-2.43,.58-4.39,1.73-5.87s2.66-2.22,4.53-2.22,3.33,.63,4.41,1.9v-8.26h2.71v22.5h-2.49l-.13-1.7c-1.08,1.33-2.59,1.99-4.53,1.99s-3.33-.75-4.49-2.26c-1.16-1.5-1.74-3.47-1.74-5.89v-.21Zm2.71,.31c0,1.8,.37,3.2,1.11,4.22s1.77,1.52,3.08,1.52c1.72,0,2.97-.77,3.76-2.31v-7.28c-.81-1.49-2.06-2.24-3.74-2.24-1.33,0-2.36,.51-3.11,1.54s-1.11,2.54-1.11,4.56Z"/><path class="w" d="M1388.23,539.09l.07,1.76c1.16-1.37,2.73-2.05,4.7-2.05,2.22,0,3.73,.85,4.53,2.55,.53-.76,1.21-1.38,2.06-1.85s1.84-.7,3-.7c3.48,0,5.24,1.84,5.3,5.52v10.62h-2.71v-10.46c0-1.13-.26-1.98-.78-2.54s-1.39-.84-2.61-.84c-1.01,0-1.84,.3-2.5,.9s-1.05,1.41-1.16,2.42v10.52h-2.72v-10.39c0-2.3-1.13-3.46-3.38-3.46-1.78,0-2.99,.76-3.65,2.27v11.57h-2.71v-15.85h2.56Z"/><path class="w" d="M1411.99,534.89c0-.44,.13-.81,.4-1.11,.27-.3,.67-.45,1.19-.45s.93,.15,1.2,.45,.41,.67,.41,1.11-.14,.81-.41,1.1-.67,.44-1.2,.44-.93-.15-1.19-.44c-.27-.29-.4-.66-.4-1.1Zm2.93,20.05h-2.71v-15.85h2.71v15.85Z"/><path class="w" d="M1421.82,539.09l.09,1.99c1.21-1.52,2.79-2.29,4.75-2.29,3.35,0,5.04,1.89,5.07,5.67v10.47h-2.71v-10.49c0-1.14-.27-1.99-.78-2.53-.51-.55-1.31-.82-2.4-.82-.88,0-1.65,.23-2.31,.7s-1.18,1.08-1.55,1.85v11.29h-2.71v-15.85h2.56Z"/><path class="w" d="M1460.05,554.94h-2.83l-10.74-16.44v16.44h-2.83v-21.33h2.83l10.77,16.51v-16.51h2.8v21.33Z"/><path class="w" d="M1463.91,546.87c0-1.55,.3-2.95,.92-4.19s1.46-2.2,2.55-2.87,2.33-1.01,3.73-1.01c2.16,0,3.9,.75,5.24,2.24,1.33,1.49,2,3.48,2,5.96v.19c0,1.54-.3,2.93-.89,4.15s-1.44,2.18-2.53,2.86c-1.1,.68-2.36,1.03-3.79,1.03-2.15,0-3.89-.75-5.22-2.24-1.33-1.49-2-3.47-2-5.93v-.19Zm2.72,.32c0,1.76,.41,3.17,1.22,4.23,.81,1.06,1.91,1.6,3.27,1.6s2.47-.54,3.28-1.62,1.22-2.59,1.22-4.53c0-1.74-.41-3.15-1.24-4.23-.83-1.08-1.92-1.62-3.29-1.62s-2.42,.53-3.24,1.6-1.23,2.59-1.23,4.57Z"/><path class="w" d="M1481.08,546.89c0-2.43,.58-4.39,1.73-5.87s2.66-2.22,4.53-2.22,3.33,.63,4.41,1.9v-8.26h2.71v22.5h-2.49l-.13-1.7c-1.08,1.33-2.59,1.99-4.53,1.99s-3.33-.75-4.49-2.26c-1.16-1.5-1.74-3.47-1.74-5.89v-.21Zm2.71,.31c0,1.8,.37,3.2,1.11,4.22s1.77,1.52,3.08,1.52c1.72,0,2.97-.77,3.76-2.31v-7.28c-.81-1.49-2.06-2.24-3.74-2.24-1.33,0-2.36,.51-3.11,1.54s-1.11,2.54-1.11,4.56Z"/><path class="w" d="M1505.23,555.23c-2.15,0-3.9-.71-5.24-2.12s-2.02-3.3-2.02-5.66v-.5c0-1.57,.3-2.98,.9-4.21,.6-1.24,1.44-2.2,2.52-2.9,1.08-.7,2.25-1.05,3.51-1.05,2.06,0,3.66,.68,4.8,2.04s1.71,3.3,1.71,5.83v1.13h-10.74c.04,1.56,.5,2.82,1.37,3.79s1.99,1.44,3.33,1.44c.96,0,1.77-.2,2.43-.59s1.25-.91,1.74-1.55l1.66,1.29c-1.33,2.04-3.32,3.06-5.98,3.06Zm-.34-14.21c-1.09,0-2.01,.4-2.75,1.19s-1.2,1.91-1.38,3.35h7.94v-.21c-.08-1.38-.45-2.44-1.11-3.2s-1.56-1.14-2.7-1.14Z"/></g></g><rect class="j" x="1208.86" y="367.85" width="357" height="229" rx="9.35" ry="9.35"/></g><g><g><path class="ab" d="M1367.17,737.3h21.59l11.21,14.09-1.93,4.8h-27.89l.68-4.8-6.57-10.37,2.91-3.72Zm15.45-61.91l11.57-.02,51.99,61.98-4.04,18.84h-22.28l1.39-5.31-48.58-57.93,9.96-17.57Zm20.44-25.21l24.17,18.99-3.09,3.19,4.19,5.84v6.24l-12.05,9.82-20.26-23.94h-11.8l4.75-8.71,14.09-11.44h0Zm-50.73,60.84l16.86-14.65,22.38,26.93-6.35,9.86h-20.63l-14.27,18.73-3.26,4.31h-18.49v-22.98l17.24-22.2h6.54Z"/><g><path class="w" d="M1296.18,799.5l-2.61,2.71v7.21h-2.81v-21.33h2.81v10.55l9.48-10.55h3.4l-8.39,9.42,9.05,11.91h-3.37l-7.56-9.92Z"/><path class="w" d="M1308.03,801.35c0-1.55,.3-2.95,.92-4.19s1.46-2.2,2.55-2.87,2.33-1.01,3.73-1.01c2.16,0,3.9,.75,5.24,2.24,1.33,1.49,2,3.48,2,5.96v.19c0,1.54-.3,2.93-.89,4.15s-1.44,2.18-2.53,2.86c-1.1,.68-2.36,1.03-3.79,1.03-2.15,0-3.89-.75-5.22-2.24-1.33-1.49-2-3.47-2-5.93v-.19Zm2.72,.32c0,1.76,.41,3.17,1.22,4.23,.81,1.06,1.91,1.6,3.27,1.6s2.47-.54,3.28-1.62,1.22-2.59,1.22-4.53c0-1.74-.41-3.15-1.24-4.23-.83-1.08-1.92-1.62-3.29-1.62s-2.42,.53-3.24,1.6-1.23,2.59-1.23,4.57Z"/><path class="w" d="M1328.42,793.57l.09,1.99c1.21-1.52,2.79-2.29,4.75-2.29,3.35,0,5.04,1.89,5.07,5.67v10.47h-2.71v-10.49c0-1.14-.27-1.99-.78-2.53-.51-.55-1.31-.82-2.4-.82-.88,0-1.65,.23-2.31,.7s-1.18,1.08-1.55,1.85v11.29h-2.71v-15.85h2.56Z"/><path class="w" d="M1341.77,801.36c0-2.47,.57-4.44,1.71-5.9s2.66-2.19,4.54-2.19,3.44,.68,4.53,2.05l.13-1.76h2.48v15.47c0,2.05-.61,3.67-1.82,4.85-1.21,1.18-2.85,1.77-4.9,1.77-1.14,0-2.26-.24-3.35-.73s-1.93-1.16-2.5-2.01l1.41-1.63c1.16,1.44,2.58,2.15,4.26,2.15,1.32,0,2.35-.37,3.08-1.11,.74-.74,1.11-1.79,1.11-3.13v-1.36c-1.08,1.25-2.56,1.88-4.44,1.88s-3.36-.75-4.5-2.24-1.72-3.53-1.72-6.11Zm2.72,.31c0,1.79,.37,3.19,1.1,4.21s1.76,1.53,3.08,1.53c1.71,0,2.96-.78,3.76-2.33v-7.24c-.83-1.51-2.08-2.27-3.74-2.27-1.32,0-2.35,.51-3.09,1.54s-1.11,2.54-1.11,4.56Z"/><path class="w" d="M1369.91,801.07v8.35h-2.81v-21.33h7.87c2.33,0,4.16,.6,5.49,1.79,1.32,1.19,1.98,2.77,1.98,4.73,0,2.07-.65,3.67-1.94,4.78s-3.15,1.68-5.56,1.68h-5.02Zm0-2.3h5.05c1.5,0,2.66-.35,3.46-1.06s1.2-1.73,1.2-3.07-.4-2.29-1.2-3.05c-.8-.76-1.9-1.16-3.3-1.19h-5.21v8.38Z"/><path class="w" d="M1393.26,796c-.41-.07-.85-.1-1.33-.1-1.78,0-2.98,.76-3.62,2.27v11.25h-2.71v-15.85h2.64l.04,1.83c.89-1.42,2.15-2.12,3.78-2.12,.53,0,.93,.07,1.2,.21v2.52Z"/><path class="w" d="M1394.74,801.35c0-1.55,.3-2.95,.92-4.19s1.46-2.2,2.55-2.87,2.33-1.01,3.73-1.01c2.16,0,3.9,.75,5.24,2.24,1.33,1.49,2,3.48,2,5.96v.19c0,1.54-.3,2.93-.89,4.15s-1.44,2.18-2.53,2.86c-1.1,.68-2.36,1.03-3.79,1.03-2.15,0-3.89-.75-5.22-2.24-1.33-1.49-2-3.47-2-5.93v-.19Zm2.72,.32c0,1.76,.41,3.17,1.22,4.23,.81,1.06,1.91,1.6,3.27,1.6s2.47-.54,3.28-1.62,1.22-2.59,1.22-4.53c0-1.74-.41-3.15-1.24-4.23-.83-1.08-1.92-1.62-3.29-1.62s-2.42,.53-3.24,1.6-1.23,2.59-1.23,4.57Z"/><path class="w" d="M1417.57,799.36l3.52-5.79h3.16l-5.19,7.84,5.35,8.01h-3.13l-3.66-5.93-3.66,5.93h-3.15l5.35-8.01-5.19-7.84h3.13l3.47,5.79Z"/><path class="w" d="M1432.31,805.45l3.69-11.88h2.9l-6.37,18.3c-.99,2.64-2.55,3.96-4.7,3.96l-.51-.04-1.01-.19v-2.2l.73,.06c.92,0,1.63-.19,2.15-.56,.51-.37,.93-1.05,1.27-2.04l.6-1.61-5.65-15.67h2.96l3.96,11.88Z"/><path class="w" d="M1460.95,803.84h-8.94l-2.01,5.58h-2.9l8.14-21.33h2.46l8.16,21.33h-2.89l-2.04-5.58Zm-8.09-2.3h7.25l-3.63-9.98-3.62,9.98Z"/><path class="w" d="M1471.55,801.07v8.35h-2.81v-21.33h7.87c2.33,0,4.16,.6,5.49,1.79,1.32,1.19,1.98,2.77,1.98,4.73,0,2.07-.65,3.67-1.94,4.78s-3.15,1.68-5.56,1.68h-5.02Zm0-2.3h5.05c1.5,0,2.66-.35,3.46-1.06s1.2-1.73,1.2-3.07-.4-2.29-1.2-3.05c-.8-.76-1.9-1.16-3.3-1.19h-5.21v8.38Z"/><path class="w" d="M1490.68,809.42h-2.81v-21.33h2.81v21.33Z"/></g></g><rect class="j" x="1208.86" y="619.36" width="357" height="229" rx="9.35" ry="9.35"/></g><g><g><g><g><path class="h" d="M1439.23,962.34h28.1c3.92,0,7.13,3.21,7.13,7.13v21.89c0,3.92-3.21,7.13-7.13,7.13h-184.16c-3.92,0-7.13-3.21-7.13-7.13v-21.89c0-3.92,3.21-7.13,7.13-7.13h21.35"/><line class="t" x1="1304.53" y1="962.34" x2="1312.46" y2="962.34"/><circle class="a`" cx="1455.25" cy="980.04" r="3.92"/><g><line class="n" x1="1288.66" y1="972.28" x2="1288.66" y2="988.55"/><line class="n" x1="1296.6" y1="972.28" x2="1296.6" y2="988.55"/><line class="n" x1="1304.53" y1="972.28" x2="1304.53" y2="988.55"/><line class="n" x1="1312.46" y1="972.28" x2="1312.46" y2="988.55"/></g></g><g><path class="a`" d="M1406.72,937.45l-.8,.8c-4.51,4.51-10.18,7.1-15.56,7.1-8.53,0-14.72-6.23-14.72-14.81s6.04-14.8,14.37-14.8c4.82,0,10.53,2.25,14.55,5.72l.81,.7,7.98-8.34-.9-.77c-6.13-5.26-14.84-8.41-23.29-8.41-9.31,0-17.2,4.23-21.88,10.93h-14.71l-.86,7.24h12.08c-.39,1.31-.66,2.67-.84,4.07h-18.08l-.86,7.24h18.94c.18,1.4,.45,2.76,.82,4.06h-27.22l-.86,7.24h31.52c4.69,6.75,12.68,10.93,22.31,10.93,12.09,0,20.52-6.18,24.46-9.87l.84-.79-8.09-8.27Z"/><polygon class="a`" points="1342.82 926.9 1337.49 926.9 1336.63 934.14 1341.96 934.14 1342.82 926.9"/></g></g><g><path class="w" d="M1268.28,1051.2c-.26,2.26-1.1,4-2.5,5.22s-3.26,1.84-5.59,1.84c-2.52,0-4.54-.9-6.06-2.71-1.52-1.81-2.28-4.22-2.28-7.25v-2.05c0-1.98,.35-3.73,1.06-5.23s1.71-2.66,3.01-3.46,2.8-1.21,4.51-1.21c2.27,0,4.08,.63,5.45,1.9s2.16,3.02,2.39,5.25h-2.83c-.24-1.7-.77-2.94-1.59-3.7-.82-.76-1.96-1.15-3.42-1.15-1.8,0-3.21,.66-4.23,1.99-1.02,1.33-1.53,3.22-1.53,5.67v2.07c0,2.32,.48,4.16,1.45,5.53s2.32,2.05,4.06,2.05c1.56,0,2.76-.35,3.6-1.06,.84-.71,1.39-1.94,1.66-3.7h2.83Z"/><path class="w" d="M1281.48,1056.4c-1.05,1.24-2.6,1.86-4.64,1.86-1.69,0-2.98-.49-3.86-1.47s-1.33-2.43-1.34-4.36v-10.31h2.71v10.24c0,2.4,.98,3.6,2.93,3.6,2.07,0,3.45-.77,4.13-2.31v-11.53h2.71v15.85h-2.58l-.06-1.57Z"/><path class="w" d="M1295.9,1044.54c-.41-.07-.85-.1-1.33-.1-1.78,0-2.98,.76-3.62,2.27v11.25h-2.71v-15.85h2.64l.04,1.83c.89-1.42,2.15-2.12,3.78-2.12,.53,0,.93,.07,1.2,.21v2.52Z"/><path class="w" d="M1298.4,1037.91c0-.44,.13-.81,.4-1.11,.27-.3,.67-.45,1.19-.45s.93,.15,1.2,.45,.41,.67,.41,1.11-.14,.81-.41,1.1-.67,.44-1.2,.44-.93-.15-1.19-.44c-.27-.29-.4-.66-.4-1.1Zm2.93,20.05h-2.71v-15.85h2.71v15.85Z"/><path class="w" d="M1309.34,1038.28v3.84h2.96v2.09h-2.96v9.84c0,.64,.13,1.11,.4,1.43,.26,.32,.71,.48,1.35,.48,.31,0,.74-.06,1.29-.18v2.18c-.71,.19-1.41,.29-2.08,.29-1.21,0-2.12-.37-2.74-1.1s-.92-1.77-.92-3.12v-9.83h-2.89v-2.09h2.89v-3.84h2.71Z"/><path class="w" d="M1320.65,1053.99l3.69-11.88h2.9l-6.37,18.3c-.99,2.64-2.55,3.96-4.7,3.96l-.51-.04-1.01-.19v-2.2l.73,.06c.92,0,1.63-.19,2.15-.56,.51-.37,.93-1.05,1.27-2.04l.6-1.61-5.65-15.67h2.96l3.96,11.88Z"/><path class="w" d="M1345.33,1049.33h-5.01v8.63h-2.83v-21.33h7.06c2.4,0,4.25,.55,5.54,1.64,1.29,1.09,1.94,2.69,1.94,4.78,0,1.33-.36,2.49-1.08,3.47-.72,.99-1.72,1.72-3,2.21l5.01,9.05v.18h-3.02l-4.63-8.63Zm-5.01-2.3h4.32c1.4,0,2.51-.36,3.33-1.09s1.24-1.69,1.24-2.91c0-1.32-.39-2.33-1.18-3.04-.79-.71-1.92-1.06-3.41-1.07h-4.31v8.1Z"/><path class="w" d="M1365.34,1056.4c-1.05,1.24-2.6,1.86-4.64,1.86-1.69,0-2.98-.49-3.86-1.47s-1.33-2.43-1.34-4.36v-10.31h2.71v10.24c0,2.4,.98,3.6,2.93,3.6,2.07,0,3.45-.77,4.13-2.31v-11.53h2.71v15.85h-2.58l-.06-1.57Z"/><path class="w" d="M1374.66,1042.11l.09,1.99c1.21-1.52,2.79-2.29,4.75-2.29,3.35,0,5.04,1.89,5.07,5.67v10.47h-2.71v-10.49c0-1.14-.27-1.99-.78-2.53-.51-.55-1.31-.82-2.4-.82-.88,0-1.65,.23-2.31,.7s-1.18,1.08-1.55,1.85v11.29h-2.71v-15.85h2.56Z"/><path class="w" d="M1392.33,1038.28v3.84h2.96v2.09h-2.96v9.84c0,.64,.13,1.11,.4,1.43,.26,.32,.71,.48,1.35,.48,.31,0,.74-.06,1.29-.18v2.18c-.71,.19-1.41,.29-2.08,.29-1.21,0-2.12-.37-2.74-1.1s-.92-1.77-.92-3.12v-9.83h-2.89v-2.09h2.89v-3.84h2.71Z"/><path class="w" d="M1398.46,1037.91c0-.44,.13-.81,.4-1.11,.27-.3,.67-.45,1.19-.45s.93,.15,1.2,.45,.41,.67,.41,1.11-.14,.81-.41,1.1-.67,.44-1.2,.44-.93-.15-1.19-.44c-.27-.29-.4-.66-.4-1.1Zm2.93,20.05h-2.71v-15.85h2.71v15.85Z"/><path class="w" d="M1408.28,1042.11l.07,1.76c1.16-1.37,2.73-2.05,4.7-2.05,2.22,0,3.73,.85,4.53,2.55,.53-.76,1.21-1.38,2.06-1.85s1.84-.7,3-.7c3.48,0,5.24,1.84,5.3,5.52v10.62h-2.71v-10.46c0-1.13-.26-1.98-.78-2.54s-1.39-.84-2.61-.84c-1.01,0-1.84,.3-2.5,.9s-1.05,1.41-1.16,2.42v10.52h-2.72v-10.39c0-2.3-1.13-3.46-3.38-3.46-1.78,0-2.99,.76-3.65,2.27v11.57h-2.71v-15.85h2.56Z"/><path class="w" d="M1438.6,1058.26c-2.15,0-3.9-.71-5.24-2.12s-2.02-3.3-2.02-5.66v-.5c0-1.57,.3-2.98,.9-4.21,.6-1.24,1.44-2.2,2.52-2.9,1.08-.7,2.25-1.05,3.51-1.05,2.06,0,3.66,.68,4.8,2.04s1.71,3.3,1.71,5.83v1.13h-10.74c.04,1.56,.5,2.82,1.37,3.79s1.99,1.44,3.33,1.44c.96,0,1.77-.2,2.43-.59s1.25-.91,1.74-1.55l1.66,1.29c-1.33,2.04-3.32,3.06-5.98,3.06Zm-.34-14.21c-1.09,0-2.01,.4-2.75,1.19s-1.2,1.91-1.38,3.35h7.94v-.21c-.08-1.38-.45-2.44-1.11-3.2s-1.56-1.13-2.7-1.13Z"/><path class="w" d="M1472.16,1057.96h-2.83l-10.74-16.44v16.44h-2.83v-21.33h2.83l10.77,16.51v-16.51h2.8v21.33Z"/><path class="w" d="M1476.01,1049.89c0-1.55,.3-2.95,.92-4.19s1.46-2.2,2.55-2.87,2.33-1.01,3.73-1.01c2.16,0,3.9,.75,5.24,2.24,1.33,1.49,2,3.48,2,5.96v.19c0,1.54-.3,2.93-.89,4.15s-1.44,2.18-2.53,2.86c-1.1,.68-2.36,1.03-3.79,1.03-2.15,0-3.89-.75-5.22-2.24-1.33-1.49-2-3.47-2-5.93v-.19Zm2.72,.32c0,1.76,.41,3.17,1.22,4.23,.81,1.06,1.91,1.6,3.27,1.6s2.47-.54,3.28-1.62,1.22-2.59,1.22-4.53c0-1.74-.41-3.15-1.24-4.23-.83-1.08-1.92-1.62-3.29-1.62s-2.42,.53-3.24,1.6-1.23,2.59-1.23,4.57Z"/><path class="w" d="M1493.18,1049.91c0-2.43,.58-4.39,1.73-5.87s2.66-2.22,4.53-2.22,3.33,.63,4.41,1.9v-8.26h2.71v22.5h-2.49l-.13-1.7c-1.08,1.33-2.59,1.99-4.53,1.99s-3.33-.75-4.49-2.26c-1.16-1.5-1.74-3.47-1.74-5.89v-.21Zm2.71,.31c0,1.8,.37,3.2,1.11,4.22s1.77,1.52,3.08,1.52c1.72,0,2.97-.77,3.76-2.31v-7.28c-.81-1.49-2.06-2.24-3.74-2.24-1.33,0-2.36,.51-3.11,1.54s-1.11,2.54-1.11,4.56Z"/><path class="w" d="M1517.34,1058.26c-2.15,0-3.9-.71-5.24-2.12s-2.02-3.3-2.02-5.66v-.5c0-1.57,.3-2.98,.9-4.21,.6-1.24,1.44-2.2,2.52-2.9,1.08-.7,2.25-1.05,3.51-1.05,2.06,0,3.66,.68,4.8,2.04s1.71,3.3,1.71,5.83v1.13h-10.74c.04,1.56,.5,2.82,1.37,3.79s1.99,1.44,3.33,1.44c.96,0,1.77-.2,2.43-.59s1.25-.91,1.74-1.55l1.66,1.29c-1.33,2.04-3.32,3.06-5.98,3.06Zm-.34-14.21c-1.09,0-2.01,.4-2.75,1.19s-1.2,1.91-1.38,3.35h7.94v-.21c-.08-1.38-.45-2.44-1.11-3.2s-1.56-1.13-2.7-1.13Z"/></g></g><rect class="j" x="1208.86" y="870.87" width="357" height="229" rx="9.35" ry="9.35"/></g><g><line class="j" x1="830" y1="216.79" x2="1199" y2="216.79"/><path class="w" d="M1189,207.26v19.08c0,.9,1.01,1.42,1.75,.9l13.44-9.54c.62-.44,.62-1.36,0-1.8l-13.44-9.54c-.73-.52-1.75,0-1.75,.9Z"/></g><g><line class="j" x1="830" y1="485.56" x2="1199" y2="485.56"/><path class="w" d="M1189,476.03v19.08c0,.9,1.01,1.42,1.75,.9l13.44-9.54c.62-.44,.62-1.36,0-1.8l-13.44-9.54c-.73-.52-1.75,0-1.75,.9Z"/></g><g><line class="j" x1="830" y1="729.53" x2="1199" y2="729.53"/><path class="w" d="M1189,719.99v19.08c0,.9,1.01,1.42,1.75,.9l13.44-9.54c.62-.44,.62-1.36,0-1.8l-13.44-9.54c-.73-.52-1.75,0-1.75,.9Z"/></g><g><line class="j" x1="830" y1="981.67" x2="1199" y2="981.67"/><path class="w" d="M1189,972.13v19.08c0,.9,1.01,1.42,1.75,.9l13.44-9.54c.62-.44,.62-1.36,0-1.8l-13.44-9.54c-.73-.52-1.75,0-1.75,.9Z"/></g><g id="b"><g class="ac"><g class="ad"><path class="v" d="M1987.67,207.03c-2.16,0-4.21-.96-5.59-2.7l-21.03-26.13c-1.38-1.74-1.92-3.96-1.38-6.13l7.51-32.62c.48-2.16,1.92-3.91,3.9-4.87l30.4-14.54c.96-.48,2.04-.72,3.12-.72s2.16,.24,3.13,.72l30.4,14.48c1.98,.96,3.43,2.7,3.91,4.87l7.51,32.62c.48,2.16,0,4.39-1.38,6.13l-21.03,26.13c-1.38,1.68-3.43,2.7-5.59,2.7l-33.88,.06Z"/><path class="u" d="M2004.55,120.82c.84,0,1.68,.18,2.46,.54l30.4,14.48c1.56,.78,2.76,2.22,3.12,3.91l7.51,32.62c.42,1.74,0,3.54-1.14,4.93l-21.03,26.13c-1.08,1.38-2.76,2.16-4.51,2.16h-33.7c-1.74,0-3.42-.78-4.51-2.16l-21.03-26.13c-1.08-1.38-1.5-3.19-1.14-4.93l7.51-32.62c.42-1.74,1.56-3.18,3.12-3.91l30.4-14.54c.78-.3,1.68-.48,2.52-.48m0-2.82h0c-1.26,0-2.52,.3-3.73,.84l-30.4,14.54c-2.4,1.14-4.09,3.24-4.69,5.83l-7.51,32.62c-.6,2.58,0,5.23,1.68,7.33l21.03,26.13c1.62,2.04,4.09,3.18,6.67,3.18h33.7c2.58,0,5.05-1.14,6.67-3.18l21.03-26.13c1.68-2.04,2.28-4.75,1.68-7.33l-7.51-32.62c-.6-2.58-2.28-4.68-4.69-5.83l-30.28-14.54c-1.14-.54-2.4-.84-3.66-.84"/><path class="u" d="M2035.01,169.79h0q-.06,0,0,0h-.06c-.06,0-.12,0-.12-.06-.12,0-.24-.06-.36-.06-.42-.06-.78-.12-1.14-.12-.18,0-.36,0-.6-.06h-.06c-1.26-.12-2.28-.24-3.24-.54-.42-.18-.54-.42-.66-.66,0-.06-.06-.06-.06-.12l-.78-.24c.36-2.76,.24-5.65-.42-8.47-.66-2.82-1.8-5.47-3.37-7.87l.6-.54v-.12c0-.3,.06-.6,.3-.9,.72-.66,1.62-1.2,2.7-1.86,.18-.12,.36-.18,.54-.3,.36-.18,.66-.36,1.02-.6,.06-.06,.18-.12,.3-.24,.06-.06,.12-.06,.12-.12,.84-.72,1.02-1.92,.42-2.7-.3-.42-.84-.66-1.38-.66-.48,0-.9,.18-1.32,.48l-.12,.12c-.12,.06-.18,.18-.3,.24-.3,.3-.54,.54-.78,.84-.12,.12-.24,.3-.42,.42-.84,.9-1.62,1.62-2.4,2.16-.18,.12-.36,.18-.54,.18-.12,0-.24,0-.36-.06h-.12l-.72,.48c-.78-.84-1.62-1.56-2.46-2.28-3.61-2.82-7.99-4.57-12.56-4.99l-.06-.78-.12-.12c-.18-.18-.42-.36-.48-.78-.06-.96,.06-2.04,.18-3.24v-.06c0-.18,.06-.42,.12-.6,.06-.36,.12-.72,.18-1.14v-.54c0-1.08-.84-1.98-1.86-1.98-.48,0-.96,.24-1.32,.6-.36,.36-.54,.84-.54,1.38v.48c0,.42,.06,.78,.18,1.14,.06,.18,.06,.36,.12,.6v.06c.12,1.2,.3,2.28,.18,3.24-.06,.42-.3,.6-.48,.78l-.12,.12-.06,.78c-1.08,.12-2.16,.24-3.24,.48-4.63,1.02-8.71,3.36-11.89,6.73l-.6-.42h-.12c-.12,0-.24,.06-.36,.06-.18,0-.36-.06-.54-.18-.78-.54-1.56-1.32-2.4-2.22-.12-.12-.24-.3-.42-.42-.24-.3-.48-.54-.78-.84-.06-.06-.18-.12-.3-.24-.06-.06-.12-.06-.12-.12-.36-.3-.84-.48-1.32-.48-.54,0-1.08,.24-1.38,.66-.6,.78-.42,1.98,.42,2.7,.06,0,.06,.06,.12,.06,.12,.06,.18,.18,.3,.24,.36,.24,.66,.42,1.02,.6,.18,.06,.36,.18,.54,.3,1.08,.66,1.98,1.2,2.7,1.86,.3,.3,.3,.6,.3,.9v.12l.6,.54c-.12,.18-.24,.3-.3,.48-3,4.75-4.15,10.33-3.37,15.86l-.78,.24c0,.06-.06,.06-.06,.12-.12,.24-.3,.48-.66,.66-.9,.3-1.98,.42-3.24,.54h-.06c-.18,0-.42,0-.6,.06-.36,0-.72,.06-1.14,.12-.12,0-.24,.06-.36,.06-.06,0-.12,0-.18,.06-1.08,.24-1.74,1.26-1.56,2.22,.18,.84,.96,1.38,1.92,1.38,.18,0,.3,0,.48-.06,.06,0,.12,0,.12-.06,.12,0,.24-.06,.36-.06,.42-.12,.72-.24,1.08-.42,.18-.06,.36-.18,.54-.24h.06c1.14-.42,2.16-.78,3.12-.9h.12c.36,0,.6,.18,.78,.3,.06,0,.06,.06,.12,.06l.84-.12c1.44,4.44,4.21,8.41,7.87,11.29,.84,.66,1.68,1.2,2.58,1.74l-.36,.78c0,.06,.06,.06,.06,.12,.12,.24,.24,.54,.12,.96-.36,.9-.9,1.8-1.56,2.82v.06c-.12,.18-.24,.3-.36,.48-.24,.3-.42,.6-.66,.96-.06,.06-.12,.18-.18,.3,0,.06-.06,.12-.06,.12-.48,1.02-.12,2.16,.78,2.58,.24,.12,.48,.18,.72,.18,.72,0,1.44-.48,1.8-1.14,0-.06,.06-.12,.06-.12,.06-.12,.12-.24,.18-.3,.18-.42,.24-.72,.36-1.08,.06-.18,.12-.36,.18-.54,.42-1.2,.72-2.16,1.26-3,.24-.36,.54-.42,.78-.54q.06,0,.12-.06l.42-.78c2.64,1.02,5.53,1.56,8.41,1.56,1.74,0,3.54-.18,5.23-.6,1.08-.24,2.1-.54,3.12-.9l.36,.66q.06,0,.12,.06c.3,.06,.54,.18,.78,.54,.48,.84,.84,1.86,1.26,3v.06c.06,.18,.12,.36,.18,.54,.12,.36,.18,.72,.36,1.08,.06,.12,.12,.18,.18,.3,0,.06,.06,.12,.06,.12,.36,.72,1.08,1.14,1.8,1.14,.24,0,.48-.06,.72-.18,.42-.24,.78-.6,.9-1.08,.12-.48,.12-1.02-.12-1.5,0-.06-.06-.06-.06-.12-.06-.12-.12-.24-.18-.3-.18-.36-.42-.66-.66-.96-.12-.18-.24-.3-.36-.48v-.06c-.66-1.02-1.26-1.92-1.56-2.82-.12-.42,0-.66,.06-.96,0-.06,.06-.06,.06-.12l-.3-.72c3.18-1.86,5.89-4.51,7.93-7.75,1.08-1.68,1.92-3.54,2.52-5.41l.72,.12c.06,0,.06-.06,.12-.06,.24-.12,.42-.3,.78-.3h.12c.96,.12,1.98,.48,3.12,.9h.06c.18,.06,.36,.18,.54,.24,.36,.18,.66,.3,1.08,.42,.12,0,.24,.06,.36,.06,.06,0,.12,0,.18,.06,.18,.06,.3,.06,.48,.06,.9,0,1.68-.6,1.92-1.38,0-.72-.66-1.68-1.74-1.98m-27.81-2.94l-2.64,1.26-2.64-1.26-.66-2.82,1.8-2.28h2.94l1.8,2.28-.6,2.82Zm15.68-6.25c.48,2.04,.6,4.09,.42,6.07l-9.19-2.64c-.84-.24-1.32-1.08-1.14-1.92,.06-.24,.18-.48,.36-.66l7.27-6.55c1.02,1.68,1.8,3.6,2.28,5.71m-5.17-9.31l-7.87,5.59c-.66,.42-1.56,.3-2.1-.36-.18-.18-.24-.42-.3-.66l-.54-9.79c4.14,.48,7.93,2.34,10.81,5.23m-17.42-4.93c.66-.12,1.26-.24,1.92-.36l-.54,9.61c-.06,.84-.72,1.56-1.62,1.56-.24,0-.54-.06-.72-.18l-7.99-5.71c2.46-2.46,5.53-4.15,8.95-4.93m-11.83,8.53l7.15,6.37c.66,.54,.72,1.56,.18,2.22-.18,.24-.42,.42-.72,.48l-9.31,2.7c-.36-4.09,.54-8.23,2.7-11.77m-1.62,16.28l9.55-1.62c.78-.06,1.5,.48,1.68,1.26,.06,.36,.06,.66-.06,.96l-3.67,8.83c-3.36-2.16-6.07-5.47-7.51-9.43m21.93,11.96c-1.38,.3-2.76,.48-4.2,.48-2.1,0-4.15-.36-6.07-.96l4.75-8.59c.48-.54,1.26-.78,1.92-.42,.3,.18,.54,.42,.72,.66l4.63,8.35c-.54,.18-1.14,.3-1.74,.48m11.71-8.35c-1.5,2.4-3.48,4.33-5.77,5.83l-3.78-9.07c-.18-.72,.12-1.5,.84-1.86,.24-.12,.54-.18,.84-.18l9.61,1.62c-.36,1.32-.96,2.52-1.74,3.66"/></g></g></g><g><path class="w" d="M1965.9,268.84l-2.61,2.71v7.21h-2.81v-21.33h2.81v10.55l9.48-10.55h3.4l-8.39,9.42,9.05,11.91h-3.37l-7.56-9.92Z"/><path class="w" d="M1988.31,277.19c-1.05,1.24-2.6,1.86-4.64,1.86-1.69,0-2.98-.49-3.86-1.47s-1.33-2.43-1.34-4.36v-10.31h2.71v10.24c0,2.4,.98,3.6,2.93,3.6,2.07,0,3.45-.77,4.13-2.31v-11.53h2.71v15.85h-2.58l-.06-1.57Z"/><path class="w" d="M2008.48,271c0,2.42-.56,4.37-1.67,5.84s-2.61,2.2-4.48,2.2c-2,0-3.55-.71-4.64-2.12l-.13,1.83h-2.49v-22.5h2.71v8.39c1.09-1.36,2.6-2.04,4.53-2.04s3.44,.73,4.53,2.18c1.1,1.46,1.65,3.45,1.65,5.98v.23Zm-2.71-.31c0-1.85-.36-3.27-1.07-4.28s-1.74-1.51-3.08-1.51c-1.79,0-3.07,.83-3.85,2.49v6.86c.83,1.66,2.12,2.49,3.88,2.49,1.3,0,2.31-.5,3.03-1.51s1.08-2.52,1.08-4.54Z"/><path class="w" d="M2018.47,279.05c-2.15,0-3.9-.71-5.24-2.12s-2.02-3.3-2.02-5.66v-.5c0-1.57,.3-2.98,.9-4.21,.6-1.24,1.44-2.2,2.52-2.9,1.08-.7,2.25-1.05,3.51-1.05,2.06,0,3.66,.68,4.8,2.04s1.71,3.3,1.71,5.83v1.13h-10.74c.04,1.56,.5,2.82,1.37,3.79s1.99,1.44,3.33,1.44c.96,0,1.77-.2,2.43-.59s1.25-.91,1.74-1.55l1.66,1.29c-1.33,2.04-3.32,3.06-5.98,3.06Zm-.34-14.21c-1.09,0-2.01,.4-2.75,1.19s-1.2,1.91-1.38,3.35h7.94v-.21c-.08-1.38-.45-2.44-1.11-3.2s-1.56-1.14-2.7-1.14Z"/><path class="w" d="M2035.45,265.33c-.41-.07-.85-.1-1.33-.1-1.78,0-2.98,.76-3.62,2.27v11.25h-2.71v-15.85h2.64l.04,1.83c.89-1.42,2.15-2.12,3.78-2.12,.53,0,.93,.07,1.2,.21v2.52Z"/><path class="w" d="M2040.5,262.9l.09,1.99c1.21-1.52,2.79-2.29,4.75-2.29,3.35,0,5.04,1.89,5.07,5.67v10.47h-2.71v-10.49c0-1.14-.27-1.99-.78-2.53-.51-.55-1.31-.82-2.4-.82-.88,0-1.65,.23-2.31,.7s-1.18,1.08-1.55,1.85v11.29h-2.71v-15.85h2.56Z"/><path class="w" d="M2061.07,279.05c-2.15,0-3.9-.71-5.24-2.12s-2.02-3.3-2.02-5.66v-.5c0-1.57,.3-2.98,.9-4.21,.6-1.24,1.44-2.2,2.52-2.9,1.08-.7,2.25-1.05,3.51-1.05,2.06,0,3.66,.68,4.8,2.04s1.71,3.3,1.71,5.83v1.13h-10.74c.04,1.56,.5,2.82,1.37,3.79s1.99,1.44,3.33,1.44c.96,0,1.77-.2,2.43-.59s1.25-.91,1.74-1.55l1.66,1.29c-1.33,2.04-3.32,3.06-5.98,3.06Zm-.34-14.21c-1.09,0-2.01,.4-2.75,1.19s-1.2,1.91-1.38,3.35h7.94v-.21c-.08-1.38-.45-2.44-1.11-3.2s-1.56-1.14-2.7-1.14Z"/><path class="w" d="M2074.06,259.07v3.84h2.96v2.09h-2.96v9.84c0,.64,.13,1.11,.4,1.43s.71,.48,1.35,.48c.31,0,.74-.06,1.29-.18v2.18c-.71,.19-1.41,.29-2.08,.29-1.21,0-2.12-.37-2.74-1.1s-.92-1.77-.92-3.12v-9.83h-2.89v-2.09h2.89v-3.84h2.71Z"/><path class="w" d="M2086.76,279.05c-2.15,0-3.9-.71-5.24-2.12s-2.02-3.3-2.02-5.66v-.5c0-1.57,.3-2.98,.9-4.21,.6-1.24,1.44-2.2,2.52-2.9,1.08-.7,2.25-1.05,3.51-1.05,2.06,0,3.66,.68,4.8,2.04s1.71,3.3,1.71,5.83v1.13h-10.74c.04,1.56,.5,2.82,1.37,3.79s1.99,1.44,3.33,1.44c.96,0,1.77-.2,2.43-.59s1.25-.91,1.74-1.55l1.66,1.29c-1.33,2.04-3.32,3.06-5.98,3.06Zm-.34-14.21c-1.09,0-2.01,.4-2.75,1.19s-1.2,1.91-1.38,3.35h7.94v-.21c-.08-1.38-.45-2.44-1.11-3.2s-1.56-1.14-2.7-1.14Z"/><path class="w" d="M2105.3,274.55c0-.73-.28-1.3-.83-1.71s-1.51-.75-2.88-1.05c-1.37-.29-2.46-.64-3.27-1.05-.8-.41-1.4-.9-1.79-1.46s-.58-1.24-.58-2.02c0-1.3,.55-2.4,1.65-3.3,1.1-.9,2.5-1.35,4.21-1.35,1.8,0,3.25,.46,4.37,1.39,1.12,.93,1.68,2.11,1.68,3.56h-2.72c0-.74-.32-1.38-.94-1.92-.63-.54-1.42-.81-2.38-.81s-1.76,.21-2.31,.64-.83,.99-.83,1.68c0,.65,.26,1.15,.78,1.48s1.45,.65,2.8,.95,2.45,.66,3.29,1.08,1.46,.93,1.87,1.52,.61,1.31,.61,2.16c0,1.42-.57,2.55-1.7,3.41s-2.6,1.28-4.41,1.28c-1.27,0-2.39-.22-3.37-.67s-1.74-1.08-2.29-1.88-.83-1.68-.83-2.61h2.71c.05,.91,.41,1.63,1.09,2.16,.68,.53,1.57,.8,2.69,.8,1.03,0,1.85-.21,2.47-.62,.62-.42,.93-.97,.93-1.66Z"/><path class="w" d="M1972.53,304.89h-9.24v7.56h10.74v2.3h-13.55v-21.33h13.4v2.3h-10.59v6.87h9.24v2.3Z"/><path class="w" d="M1979.67,298.9l.09,1.99c1.21-1.52,2.79-2.29,4.75-2.29,3.35,0,5.04,1.89,5.07,5.67v10.47h-2.71v-10.49c0-1.14-.27-1.99-.78-2.53-.51-.55-1.31-.82-2.4-.82-.88,0-1.65,.23-2.31,.7s-1.18,1.08-1.55,1.85v11.29h-2.71v-15.85h2.56Z"/><path class="w" d="M1993.01,306.7c0-2.47,.57-4.44,1.71-5.9s2.66-2.19,4.54-2.19,3.44,.68,4.53,2.05l.13-1.76h2.48v15.47c0,2.05-.61,3.67-1.82,4.85-1.21,1.18-2.85,1.77-4.9,1.77-1.14,0-2.26-.24-3.35-.73s-1.93-1.16-2.5-2.01l1.41-1.63c1.16,1.44,2.58,2.15,4.26,2.15,1.32,0,2.35-.37,3.08-1.11,.74-.74,1.11-1.79,1.11-3.13v-1.36c-1.08,1.25-2.56,1.88-4.44,1.88s-3.36-.75-4.5-2.24-1.72-3.53-1.72-6.11Zm2.72,.31c0,1.79,.37,3.19,1.1,4.21s1.76,1.53,3.08,1.53c1.71,0,2.96-.78,3.76-2.33v-7.24c-.83-1.51-2.08-2.27-3.74-2.27-1.32,0-2.35,.51-3.09,1.54s-1.11,2.54-1.11,4.56Z"/><path class="w" d="M2010.5,294.7c0-.44,.13-.81,.4-1.11,.27-.3,.67-.45,1.19-.45s.93,.15,1.2,.45,.41,.67,.41,1.11-.14,.81-.41,1.1-.67,.44-1.2,.44-.93-.15-1.19-.44c-.27-.29-.4-.66-.4-1.1Zm2.93,20.05h-2.71v-15.85h2.71v15.85Z"/><path class="w" d="M2020.33,298.9l.09,1.99c1.21-1.52,2.79-2.29,4.75-2.29,3.35,0,5.04,1.89,5.07,5.67v10.47h-2.71v-10.49c0-1.14-.27-1.99-.78-2.53-.51-.55-1.31-.82-2.4-.82-.88,0-1.65,.23-2.31,.7s-1.18,1.08-1.55,1.85v11.29h-2.71v-15.85h2.56Z"/><path class="w" d="M2040.9,315.05c-2.15,0-3.9-.71-5.24-2.12s-2.02-3.3-2.02-5.66v-.5c0-1.57,.3-2.98,.9-4.21,.6-1.24,1.44-2.2,2.52-2.9,1.08-.7,2.25-1.05,3.51-1.05,2.06,0,3.66,.68,4.8,2.04s1.71,3.3,1.71,5.83v1.13h-10.74c.04,1.56,.5,2.82,1.37,3.79s1.99,1.44,3.33,1.44c.96,0,1.77-.2,2.43-.59s1.25-.91,1.74-1.55l1.66,1.29c-1.33,2.04-3.32,3.06-5.98,3.06Zm-.34-14.21c-1.09,0-2.01,.4-2.75,1.19s-1.2,1.91-1.38,3.35h7.94v-.21c-.08-1.38-.45-2.44-1.11-3.2s-1.56-1.14-2.7-1.14Z"/></g><g><line class="j" x1="1566.6" y1="729.53" x2="1935.6" y2="729.53"/><path class="w" d="M1925.6,719.99v19.08c0,.9,1.01,1.42,1.75,.9l13.44-9.54c.62-.44,.62-1.36,0-1.8l-13.44-9.54c-.73-.52-1.75,0-1.75,.9Z"/></g><g><polygon class="r" points="2055.19 704.34 2024.56 704.34 2009.25 730.86 2024.56 757.39 2055.19 757.39 2070.5 730.86 2055.19 704.34"/><polygon class="l" points="2055.19 704.34 2024.56 704.34 2009.25 730.86 2024.56 757.39 2055.19 757.39 2070.5 730.86 2055.19 704.34"/><g><circle class="p" cx="2039.87" cy="659.6" r="12.88"/><line class="l" x1="2039.87" y1="672.48" x2="2039.87" y2="694.24"/></g><g><circle class="p" cx="2039.87" cy="802.12" r="12.88"/><line class="l" x1="2039.87" y1="789.24" x2="2039.87" y2="767.48"/></g><g><g><circle class="p" cx="1976.61" cy="699.4" r="12.88"/><line class="l" x1="1988.05" y1="705.33" x2="2007.36" y2="715.35"/></g><g><circle class="p" cx="2103.13" cy="765.01" r="12.88"/><line class="l" x1="2091.7" y1="759.08" x2="2072.38" y2="749.06"/></g></g><g><g><circle class="p" cx="1975.93" cy="763.66" r="12.88"/><line class="l" x1="1987.49" y1="757.98" x2="2007.01" y2="748.37"/></g><g><circle class="p" cx="2103.82" cy="700.75" r="12.88"/><line class="l" x1="2092.26" y1="706.44" x2="2072.73" y2="716.04"/></g></g></g><g><path class="w" d="M2031.03,862.61h-8.94l-2.01,5.58h-2.9l8.14-21.33h2.46l8.16,21.33h-2.89l-2.04-5.58Zm-8.09-2.3h7.25l-3.63-9.98-3.62,9.98Z"/><path class="w" d="M2041.63,859.84v8.35h-2.81v-21.33h7.87c2.33,0,4.16,.6,5.49,1.79,1.32,1.19,1.98,2.77,1.98,4.73,0,2.07-.65,3.67-1.94,4.78s-3.15,1.68-5.56,1.68h-5.02Zm0-2.3h5.05c1.5,0,2.66-.35,3.46-1.06s1.2-1.73,1.2-3.07-.4-2.29-1.2-3.05c-.8-.76-1.9-1.16-3.3-1.19h-5.21v8.38Z"/><path class="w" d="M2060.76,868.19h-2.81v-21.33h2.81v21.33Z"/></g><g><path class="w" d="M720.02,595.17h-2.83l-10.74-16.44v16.44h-2.83v-21.33h2.83l10.77,16.51v-16.51h2.8v21.33Z"/><path class="w" d="M740.76,592.37c-.72,1.04-1.73,1.81-3.02,2.32-1.29,.51-2.8,.77-4.52,.77s-3.28-.41-4.63-1.22-2.39-1.98-3.13-3.48-1.12-3.25-1.14-5.23v-1.86c0-3.21,.75-5.7,2.25-7.47s3.61-2.65,6.32-2.65c2.23,0,4.02,.57,5.38,1.71s2.19,2.75,2.49,4.84h-2.81c-.53-2.83-2.21-4.25-5.04-4.25-1.88,0-3.31,.66-4.28,1.99s-1.46,3.24-1.47,5.75v1.74c0,2.39,.55,4.3,1.64,5.71s2.57,2.12,4.44,2.12c1.05,0,1.98-.12,2.77-.35,.79-.23,1.45-.63,1.96-1.18v-4.78h-4.94v-2.3h7.73v7.82Z"/><path class="w" d="M748.46,595.17h-2.81v-21.33h2.81v21.33Z"/><path class="w" d="M770,595.17h-2.83l-10.74-16.44v16.44h-2.83v-21.33h2.83l10.77,16.51v-16.51h2.8v21.33Z"/><path class="w" d="M782.2,582.01l5.11-8.17h3.31l-6.74,10.58,6.9,10.75h-3.34l-5.24-8.32-5.27,8.32h-3.33l6.91-10.75-6.75-10.58h3.3l5.14,8.17Z"/><path class="w" d="M706.64,631.17h-2.81v-21.33h2.81v21.33Z"/><path class="w" d="M713.92,615.32l.09,1.99c1.21-1.52,2.79-2.29,4.75-2.29,3.35,0,5.04,1.89,5.07,5.67v10.47h-2.71v-10.49c0-1.14-.27-1.99-.78-2.53s-1.31-.82-2.4-.82c-.88,0-1.65,.23-2.31,.7s-1.18,1.08-1.55,1.85v11.29h-2.71v-15.85h2.56Z"/><path class="w" d="M727.27,623.11c0-2.47,.57-4.44,1.71-5.9,1.14-1.46,2.66-2.19,4.54-2.19s3.44,.68,4.53,2.05l.13-1.76h2.48v15.47c0,2.05-.61,3.67-1.82,4.85s-2.85,1.77-4.9,1.77c-1.14,0-2.26-.24-3.35-.73s-1.93-1.16-2.5-2.01l1.41-1.63c1.16,1.44,2.58,2.15,4.26,2.15,1.32,0,2.35-.37,3.08-1.11s1.11-1.79,1.11-3.13v-1.36c-1.08,1.25-2.56,1.88-4.44,1.88s-3.36-.75-4.5-2.24-1.72-3.53-1.72-6.11Zm2.72,.31c0,1.79,.37,3.19,1.1,4.21s1.76,1.53,3.08,1.53c1.71,0,2.96-.78,3.76-2.33v-7.24c-.83-1.51-2.08-2.27-3.74-2.27-1.32,0-2.35,.51-3.09,1.54s-1.11,2.54-1.11,4.56Z"/><path class="w" d="M752.4,617.75c-.41-.07-.85-.1-1.33-.1-1.78,0-2.98,.76-3.62,2.27v11.25h-2.71v-15.85h2.64l.04,1.83c.89-1.42,2.15-2.12,3.78-2.12,.53,0,.93,.07,1.2,.21v2.52Z"/><path class="w" d="M761.19,631.46c-2.15,0-3.9-.71-5.24-2.12-1.35-1.41-2.02-3.3-2.02-5.66v-.5c0-1.57,.3-2.98,.9-4.21,.6-1.23,1.44-2.2,2.52-2.9,1.08-.7,2.25-1.05,3.51-1.05,2.06,0,3.66,.68,4.8,2.04s1.71,3.3,1.71,5.83v1.13h-10.74c.04,1.56,.5,2.83,1.37,3.79s1.98,1.44,3.33,1.44c.96,0,1.77-.2,2.43-.59s1.25-.91,1.74-1.55l1.66,1.29c-1.33,2.04-3.32,3.06-5.98,3.06Zm-.34-14.21c-1.09,0-2.01,.4-2.75,1.19-.74,.8-1.2,1.91-1.38,3.35h7.94v-.21c-.08-1.38-.45-2.44-1.11-3.2-.66-.76-1.56-1.13-2.7-1.13Z"/><path class="w" d="M779.74,626.96c0-.73-.28-1.3-.83-1.71s-1.51-.75-2.89-1.05-2.46-.64-3.27-1.05-1.4-.9-1.79-1.46-.58-1.24-.58-2.02c0-1.3,.55-2.4,1.65-3.3s2.5-1.35,4.21-1.35c1.8,0,3.25,.46,4.37,1.39s1.68,2.11,1.68,3.56h-2.72c0-.74-.31-1.38-.94-1.92s-1.42-.81-2.38-.81-1.76,.21-2.31,.64-.83,.99-.83,1.68c0,.65,.26,1.15,.78,1.48s1.45,.65,2.81,.95,2.45,.66,3.29,1.08,1.46,.93,1.87,1.52,.61,1.31,.61,2.16c0,1.42-.57,2.55-1.7,3.41s-2.6,1.28-4.41,1.28c-1.27,0-2.39-.22-3.37-.67s-1.74-1.08-2.29-1.88c-.55-.8-.83-1.68-.83-2.61h2.71c.05,.91,.41,1.63,1.09,2.16s1.57,.8,2.69,.8c1.03,0,1.85-.21,2.47-.62s.93-.97,.93-1.66Z"/><path class="w" d="M795.21,626.96c0-.73-.28-1.3-.83-1.71s-1.51-.75-2.89-1.05-2.46-.64-3.27-1.05-1.4-.9-1.79-1.46-.58-1.24-.58-2.02c0-1.3,.55-2.4,1.65-3.3s2.5-1.35,4.21-1.35c1.8,0,3.25,.46,4.37,1.39s1.68,2.11,1.68,3.56h-2.72c0-.74-.31-1.38-.94-1.92s-1.42-.81-2.38-.81-1.76,.21-2.31,.64-.83,.99-.83,1.68c0,.65,.26,1.15,.78,1.48s1.45,.65,2.81,.95,2.45,.66,3.29,1.08,1.46,.93,1.87,1.52,.61,1.31,.61,2.16c0,1.42-.57,2.55-1.7,3.41s-2.6,1.28-4.41,1.28c-1.27,0-2.39-.22-3.37-.67s-1.74-1.08-2.29-1.88c-.55-.8-.83-1.68-.83-2.61h2.71c.05,.91,.41,1.63,1.09,2.16s1.57,.8,2.69,.8c1.03,0,1.85-.21,2.47-.62s.93-.97,.93-1.66Z"/></g><g><path class="q" d="M106.84,622.63H47.54c-5.35,.19-9.86-3.97-10.09-9.32v-78.19H108.24"/><path class="q" d="M106.84,622.63h62.07c5.35,.19,9.86-3.97,10.09-9.32v-78.19H108.24"/><path class="q" d="M108.24,535.11h70.76v-10.36c-.02-5.13-4.17-9.28-9.3-9.3H46.77c-5.13,.02-9.28,4.17-9.3,9.3v10.36H108.24"/><circle class="x" cx="48.51" cy="525.29" r="3.46"/><circle class="x" cx="63.04" cy="525.29" r="3.46"/><circle class="x" cx="77.58" cy="525.29" r="3.46"/></g><rect class="k" x="555" y="35" width="1704" height="1098" rx="13.39" ry="13.39"/><g><path class="w" d="M593.97,72.63c-.72,1.04-1.73,1.81-3.03,2.32s-2.8,.77-4.52,.77-3.28-.41-4.63-1.22-2.39-1.98-3.13-3.48-1.12-3.25-1.13-5.23v-1.86c0-3.21,.75-5.7,2.25-7.47s3.61-2.65,6.32-2.65c2.23,0,4.02,.57,5.38,1.71s2.19,2.75,2.49,4.84h-2.81c-.53-2.83-2.21-4.25-5.04-4.25-1.88,0-3.31,.66-4.29,1.99s-1.46,3.24-1.47,5.75v1.74c0,2.39,.55,4.3,1.64,5.71,1.09,1.41,2.57,2.12,4.44,2.12,1.05,0,1.98-.12,2.77-.35s1.45-.63,1.96-1.18v-4.78h-4.94v-2.3h7.73v7.82Z"/><path class="w" d="M604.08,65.51l-2.61,2.71v7.21h-2.81v-21.33h2.81v10.55l9.48-10.55h3.4l-8.39,9.42,9.05,11.91h-3.37l-7.56-9.92Z"/><path class="w" d="M629.52,65.56h-9.24v7.56h10.74v2.3h-13.55v-21.33h13.4v2.3h-10.59v6.87h9.24v2.3Z"/><path class="w" d="M644.76,67.07v8.35h-2.81v-21.33h7.87c2.33,0,4.16,.6,5.49,1.79,1.32,1.19,1.98,2.77,1.98,4.73,0,2.07-.65,3.66-1.94,4.78s-3.15,1.68-5.56,1.68h-5.02Zm0-2.3h5.05c1.5,0,2.66-.35,3.46-1.06,.8-.71,1.2-1.73,1.2-3.07,0-1.27-.4-2.29-1.2-3.05s-1.9-1.16-3.3-1.19h-5.21v8.38Z"/><path class="w" d="M668.11,62.01c-.41-.07-.85-.1-1.33-.1-1.78,0-2.98,.76-3.62,2.27v11.25h-2.71v-15.85h2.64l.04,1.83c.89-1.42,2.15-2.12,3.78-2.12,.53,0,.93,.07,1.2,.21v2.52Z"/><path class="w" d="M670.61,55.37c0-.44,.13-.81,.4-1.11,.27-.3,.67-.45,1.19-.45s.93,.15,1.2,.45,.41,.67,.41,1.11-.14,.81-.41,1.1-.67,.44-1.2,.44-.93-.15-1.19-.44c-.27-.29-.4-.66-.4-1.1Zm2.93,20.05h-2.71v-15.85h2.71v15.85Z"/><path class="w" d="M683.11,71.75l3.93-12.17h2.77l-5.68,15.85h-2.07l-5.74-15.85h2.77l4.03,12.17Z"/><path class="w" d="M701.98,75.42c-.16-.31-.28-.87-.38-1.67-1.26,1.31-2.76,1.96-4.51,1.96-1.56,0-2.84-.44-3.85-1.33s-1.5-2-1.5-3.36c0-1.65,.63-2.93,1.88-3.85s3.02-1.37,5.3-1.37h2.64v-1.25c0-.95-.28-1.7-.85-2.26s-1.4-.84-2.5-.84c-.97,0-1.78,.24-2.43,.73s-.98,1.08-.98,1.77h-2.72c0-.79,.28-1.56,.84-2.29,.56-.74,1.32-1.32,2.29-1.75,.96-.43,2.02-.64,3.17-.64,1.83,0,3.26,.46,4.29,1.37s1.57,2.17,1.61,3.77v7.29c0,1.46,.19,2.61,.56,3.47v.23h-2.84Zm-4.5-2.07c.85,0,1.66-.22,2.42-.66s1.31-1.01,1.66-1.71v-3.25h-2.12c-3.32,0-4.98,.97-4.98,2.92,0,.85,.28,1.51,.85,1.99s1.29,.72,2.18,.72Z"/><path class="w" d="M712.19,55.74v3.84h2.96v2.09h-2.96v9.84c0,.64,.13,1.11,.4,1.43s.71,.48,1.35,.48c.31,0,.74-.06,1.29-.18v2.18c-.71,.19-1.41,.29-2.08,.29-1.21,0-2.12-.37-2.74-1.1s-.92-1.77-.92-3.12v-9.83h-2.89v-2.09h2.89v-3.84h2.71Z"/><path class="w" d="M724.89,75.72c-2.15,0-3.9-.71-5.24-2.12s-2.02-3.3-2.02-5.66v-.5c0-1.57,.3-2.98,.9-4.21,.6-1.24,1.44-2.2,2.52-2.9,1.08-.7,2.25-1.05,3.51-1.05,2.06,0,3.66,.68,4.8,2.04s1.71,3.3,1.71,5.83v1.13h-10.74c.04,1.56,.5,2.82,1.37,3.79s1.99,1.44,3.33,1.44c.96,0,1.77-.2,2.43-.59s1.25-.91,1.74-1.55l1.66,1.29c-1.33,2.04-3.32,3.06-5.98,3.06Zm-.34-14.21c-1.09,0-2.01,.4-2.75,1.19s-1.2,1.91-1.38,3.35h7.94v-.21c-.08-1.38-.45-2.44-1.11-3.2s-1.56-1.14-2.7-1.14Z"/><path class="w" d="M747.47,65.51l-2.61,2.71v7.21h-2.81v-21.33h2.81v10.55l9.48-10.55h3.4l-8.39,9.42,9.05,11.91h-3.37l-7.56-9.92Z"/><path class="w" d="M773.09,59.66c0,1.06-.28,2.01-.84,2.84-.56,.83-1.32,1.48-2.28,1.95,1.11,.48,1.99,1.18,2.64,2.09s.97,1.96,.97,3.12c0,1.85-.62,3.32-1.87,4.41-1.25,1.09-2.88,1.64-4.92,1.64s-3.69-.55-4.93-1.65c-1.24-1.1-1.85-2.57-1.85-4.4,0-1.15,.31-2.19,.95-3.12,.63-.93,1.5-1.63,2.61-2.11-.95-.47-1.69-1.12-2.24-1.95s-.82-1.77-.82-2.83c0-1.8,.58-3.22,1.73-4.28s2.67-1.58,4.56-1.58,3.39,.53,4.55,1.58c1.16,1.05,1.74,2.48,1.74,4.28Zm-2.21,9.95c0-1.19-.38-2.16-1.14-2.92s-1.75-1.13-2.97-1.13-2.2,.37-2.94,1.11c-.74,.74-1.11,1.72-1.11,2.93s.36,2.16,1.08,2.86c.72,.69,1.72,1.04,3,1.04s2.27-.35,2.99-1.05,1.08-1.65,1.08-2.85Zm-4.07-13.58c-1.06,0-1.93,.33-2.58,.99-.66,.66-.99,1.56-.99,2.69s.32,1.96,.97,2.63,1.52,1,2.6,1,1.95-.33,2.6-1c.65-.67,.97-1.55,.97-2.63s-.34-1.97-1.01-2.65-1.53-1.03-2.56-1.03Z"/><path class="w" d="M786.51,71.22c0-.73-.28-1.3-.83-1.71s-1.51-.75-2.88-1.05c-1.37-.29-2.46-.64-3.27-1.05-.8-.41-1.4-.9-1.79-1.46s-.58-1.24-.58-2.02c0-1.3,.55-2.4,1.65-3.3,1.1-.9,2.5-1.35,4.21-1.35,1.8,0,3.25,.46,4.37,1.39,1.12,.93,1.68,2.11,1.68,3.56h-2.72c0-.74-.32-1.38-.94-1.92-.63-.54-1.42-.81-2.38-.81s-1.76,.21-2.31,.64-.83,.99-.83,1.68c0,.65,.26,1.15,.78,1.48s1.45,.65,2.8,.95,2.45,.66,3.29,1.08,1.46,.93,1.87,1.52,.61,1.31,.61,2.16c0,1.42-.57,2.55-1.7,3.41s-2.6,1.28-4.41,1.28c-1.27,0-2.39-.22-3.37-.67s-1.74-1.08-2.29-1.88-.83-1.68-.83-2.61h2.71c.05,.91,.41,1.63,1.09,2.16,.68,.53,1.57,.8,2.69,.8,1.03,0,1.85-.21,2.47-.62,.62-.42,.93-.97,.93-1.66Z"/><path class="w" d="M816.29,68.66c-.26,2.26-1.1,4-2.5,5.22s-3.26,1.84-5.59,1.84c-2.52,0-4.54-.9-6.06-2.71-1.52-1.81-2.28-4.22-2.28-7.25v-2.05c0-1.98,.35-3.73,1.06-5.23s1.71-2.66,3.01-3.46,2.8-1.21,4.51-1.21c2.27,0,4.08,.63,5.45,1.9s2.16,3.02,2.39,5.25h-2.83c-.24-1.7-.77-2.94-1.59-3.7-.82-.76-1.96-1.15-3.42-1.15-1.8,0-3.21,.66-4.23,1.99-1.02,1.33-1.53,3.22-1.53,5.67v2.07c0,2.32,.48,4.16,1.45,5.53s2.32,2.05,4.06,2.05c1.56,0,2.76-.35,3.6-1.06,.84-.71,1.39-1.94,1.66-3.7h2.83Z"/><path class="w" d="M822.65,75.42h-2.71v-22.5h2.71v22.5Z"/><path class="w" d="M836.77,73.86c-1.05,1.24-2.6,1.86-4.64,1.86-1.69,0-2.98-.49-3.86-1.47s-1.33-2.43-1.34-4.36v-10.31h2.71v10.24c0,2.4,.98,3.6,2.93,3.6,2.07,0,3.45-.77,4.13-2.31v-11.53h2.71v15.85h-2.58l-.06-1.57Z"/><path class="w" d="M852.75,71.22c0-.73-.28-1.3-.83-1.71s-1.51-.75-2.88-1.05c-1.37-.29-2.46-.64-3.27-1.05-.8-.41-1.4-.9-1.79-1.46s-.58-1.24-.58-2.02c0-1.3,.55-2.4,1.65-3.3,1.1-.9,2.5-1.35,4.21-1.35,1.8,0,3.25,.46,4.37,1.39,1.12,.93,1.68,2.11,1.68,3.56h-2.72c0-.74-.32-1.38-.94-1.92-.63-.54-1.42-.81-2.38-.81s-1.76,.21-2.31,.64-.83,.99-.83,1.68c0,.65,.26,1.15,.78,1.48s1.45,.65,2.8,.95,2.45,.66,3.29,1.08,1.46,.93,1.87,1.52,.61,1.31,.61,2.16c0,1.42-.57,2.55-1.7,3.41s-2.6,1.28-4.41,1.28c-1.27,0-2.39-.22-3.37-.67s-1.74-1.08-2.29-1.88-.83-1.68-.83-2.61h2.71c.05,.91,.41,1.63,1.09,2.16,.68,.53,1.57,.8,2.69,.8,1.03,0,1.85-.21,2.47-.62,.62-.42,.93-.97,.93-1.66Z"/><path class="w" d="M862.67,55.74v3.84h2.96v2.09h-2.96v9.84c0,.64,.13,1.11,.4,1.43s.71,.48,1.35,.48c.31,0,.74-.06,1.29-.18v2.18c-.71,.19-1.41,.29-2.08,.29-1.21,0-2.12-.37-2.74-1.1s-.92-1.77-.92-3.12v-9.83h-2.89v-2.09h2.89v-3.84h2.71Z"/><path class="w" d="M875.37,75.72c-2.15,0-3.9-.71-5.24-2.12s-2.02-3.3-2.02-5.66v-.5c0-1.57,.3-2.98,.9-4.21,.6-1.24,1.44-2.2,2.52-2.9,1.08-.7,2.25-1.05,3.51-1.05,2.06,0,3.66,.68,4.8,2.04s1.71,3.3,1.71,5.83v1.13h-10.74c.04,1.56,.5,2.82,1.37,3.79s1.99,1.44,3.33,1.44c.96,0,1.77-.2,2.43-.59s1.25-.91,1.74-1.55l1.66,1.29c-1.33,2.04-3.32,3.06-5.98,3.06Zm-.34-14.21c-1.09,0-2.01,.4-2.75,1.19s-1.2,1.91-1.38,3.35h7.94v-.21c-.08-1.38-.45-2.44-1.11-3.2s-1.56-1.14-2.7-1.14Z"/><path class="w" d="M892.35,62.01c-.41-.07-.85-.1-1.33-.1-1.78,0-2.98,.76-3.62,2.27v11.25h-2.71v-15.85h2.64l.04,1.83c.89-1.42,2.15-2.12,3.78-2.12,.53,0,.93,.07,1.2,.21v2.52Z"/></g><g><path class="w" d="M210.59,542.14h-2.81v-21.33h2.81v21.33Z"/><path class="w" d="M217.87,526.29l.09,1.99c1.21-1.52,2.79-2.29,4.75-2.29,3.35,0,5.04,1.89,5.07,5.67v10.47h-2.71v-10.49c0-1.14-.27-1.99-.78-2.53-.51-.55-1.31-.82-2.4-.82-.88,0-1.65,.23-2.31,.7s-1.18,1.08-1.55,1.85v11.29h-2.71v-15.85h2.56Z"/><path class="w" d="M231.21,534.08c0-2.47,.57-4.44,1.71-5.9,1.14-1.46,2.66-2.19,4.54-2.19s3.44,.68,4.53,2.05l.13-1.76h2.48v15.47c0,2.05-.61,3.67-1.82,4.85-1.21,1.18-2.85,1.77-4.9,1.77-1.14,0-2.26-.24-3.35-.73s-1.93-1.16-2.5-2.01l1.41-1.63c1.16,1.44,2.58,2.15,4.26,2.15,1.32,0,2.35-.37,3.08-1.11,.74-.74,1.11-1.79,1.11-3.13v-1.36c-1.08,1.25-2.56,1.88-4.44,1.88s-3.36-.75-4.5-2.24-1.72-3.53-1.72-6.11Zm2.72,.31c0,1.79,.37,3.19,1.1,4.21s1.76,1.53,3.08,1.53c1.71,0,2.96-.78,3.76-2.33v-7.24c-.83-1.51-2.08-2.27-3.74-2.27-1.32,0-2.35,.51-3.09,1.54s-1.11,2.54-1.11,4.56Z"/><path class="w" d="M256.35,528.72c-.41-.07-.85-.1-1.33-.1-1.78,0-2.98,.76-3.62,2.27v11.25h-2.71v-15.85h2.64l.04,1.83c.89-1.42,2.15-2.12,3.78-2.12,.53,0,.93,.07,1.2,.21v2.52Z"/><path class="w" d="M265.14,542.43c-2.15,0-3.9-.71-5.24-2.12-1.35-1.41-2.02-3.3-2.02-5.66v-.5c0-1.57,.3-2.98,.9-4.21,.6-1.23,1.44-2.2,2.52-2.9,1.08-.7,2.25-1.05,3.51-1.05,2.06,0,3.66,.68,4.8,2.04s1.71,3.3,1.71,5.83v1.13h-10.74c.04,1.56,.5,2.83,1.37,3.79s1.99,1.44,3.33,1.44c.96,0,1.77-.2,2.43-.59s1.25-.91,1.74-1.55l1.66,1.29c-1.33,2.04-3.32,3.06-5.98,3.06Zm-.34-14.21c-1.09,0-2.01,.4-2.75,1.19-.74,.8-1.2,1.91-1.38,3.35h7.94v-.21c-.08-1.38-.45-2.44-1.11-3.2-.66-.76-1.56-1.13-2.7-1.13Z"/><path class="w" d="M283.69,537.93c0-.73-.28-1.3-.83-1.71s-1.51-.75-2.88-1.05c-1.37-.29-2.46-.64-3.27-1.05-.8-.41-1.4-.9-1.79-1.46s-.58-1.24-.58-2.02c0-1.3,.55-2.4,1.65-3.3,1.1-.9,2.5-1.35,4.21-1.35,1.8,0,3.25,.46,4.37,1.39,1.12,.93,1.68,2.11,1.68,3.56h-2.72c0-.74-.32-1.38-.94-1.92-.63-.54-1.42-.81-2.38-.81s-1.76,.21-2.31,.64-.83,.99-.83,1.68c0,.65,.26,1.15,.78,1.48s1.45,.65,2.8,.95,2.45,.66,3.29,1.08,1.46,.93,1.87,1.52,.61,1.31,.61,2.16c0,1.42-.57,2.55-1.7,3.41s-2.6,1.28-4.41,1.28c-1.27,0-2.39-.22-3.37-.67s-1.74-1.08-2.29-1.88c-.55-.8-.83-1.68-.83-2.61h2.71c.05,.91,.41,1.63,1.09,2.16,.68,.53,1.57,.8,2.69,.8,1.03,0,1.85-.21,2.47-.62,.62-.42,.93-.97,.93-1.66Z"/><path class="w" d="M299.15,537.93c0-.73-.28-1.3-.83-1.71s-1.51-.75-2.88-1.05c-1.37-.29-2.46-.64-3.27-1.05-.8-.41-1.4-.9-1.79-1.46s-.58-1.24-.58-2.02c0-1.3,.55-2.4,1.65-3.3,1.1-.9,2.5-1.35,4.21-1.35,1.8,0,3.25,.46,4.37,1.39,1.12,.93,1.68,2.11,1.68,3.56h-2.72c0-.74-.32-1.38-.94-1.92-.63-.54-1.42-.81-2.38-.81s-1.76,.21-2.31,.64-.83,.99-.83,1.68c0,.65,.26,1.15,.78,1.48s1.45,.65,2.8,.95,2.45,.66,3.29,1.08,1.46,.93,1.87,1.52,.61,1.31,.61,2.16c0,1.42-.57,2.55-1.7,3.41s-2.6,1.28-4.41,1.28c-1.27,0-2.39-.22-3.37-.67s-1.74-1.08-2.29-1.88c-.55-.8-.83-1.68-.83-2.61h2.71c.05,.91,.41,1.63,1.09,2.16,.68,.53,1.57,.8,2.69,.8,1.03,0,1.85-.21,2.47-.62,.62-.42,.93-.97,.93-1.66Z"/><path class="w" d="M316.88,520.81l6.97,17.4,6.97-17.4h3.65v21.33h-2.81v-8.31l.26-8.96-7,17.27h-2.15l-6.99-17.23,.28,8.92v8.31h-2.81v-21.33h3.63Z"/><path class="w" d="M348.8,542.14c-.16-.31-.28-.87-.38-1.67-1.26,1.31-2.76,1.96-4.51,1.96-1.56,0-2.84-.44-3.85-1.33-1-.88-1.5-2-1.5-3.36,0-1.65,.63-2.93,1.88-3.85,1.25-.91,3.02-1.37,5.3-1.37h2.64v-1.25c0-.95-.28-1.7-.85-2.26s-1.4-.84-2.5-.84c-.97,0-1.78,.24-2.43,.73s-.98,1.08-.98,1.77h-2.72c0-.79,.28-1.55,.84-2.29,.56-.74,1.32-1.32,2.29-1.75,.96-.43,2.02-.64,3.17-.64,1.83,0,3.26,.46,4.29,1.37,1.04,.91,1.57,2.17,1.61,3.77v7.29c0,1.46,.19,2.61,.56,3.47v.23h-2.84Zm-4.5-2.07c.85,0,1.66-.22,2.42-.66s1.31-1.01,1.66-1.71v-3.25h-2.12c-3.32,0-4.98,.97-4.98,2.92,0,.85,.28,1.51,.85,1.99s1.29,.72,2.18,.72Z"/><path class="w" d="M357.89,526.29l.09,1.99c1.21-1.52,2.79-2.29,4.75-2.29,3.35,0,5.04,1.89,5.07,5.67v10.47h-2.71v-10.49c0-1.14-.27-1.99-.78-2.53-.51-.55-1.31-.82-2.4-.82-.88,0-1.65,.23-2.31,.7s-1.18,1.08-1.55,1.85v11.29h-2.71v-15.85h2.56Z"/><path class="w" d="M381.67,542.14c-.16-.31-.28-.87-.38-1.67-1.26,1.31-2.76,1.96-4.51,1.96-1.56,0-2.84-.44-3.85-1.33-1-.88-1.5-2-1.5-3.36,0-1.65,.63-2.93,1.88-3.85,1.25-.91,3.02-1.37,5.3-1.37h2.64v-1.25c0-.95-.28-1.7-.85-2.26s-1.4-.84-2.5-.84c-.97,0-1.78,.24-2.43,.73s-.98,1.08-.98,1.77h-2.72c0-.79,.28-1.55,.84-2.29,.56-.74,1.32-1.32,2.29-1.75,.96-.43,2.02-.64,3.17-.64,1.83,0,3.26,.46,4.29,1.37,1.04,.91,1.57,2.17,1.61,3.77v7.29c0,1.46,.19,2.61,.56,3.47v.23h-2.84Zm-4.5-2.07c.85,0,1.66-.22,2.42-.66s1.31-1.01,1.66-1.71v-3.25h-2.12c-3.32,0-4.98,.97-4.98,2.92,0,.85,.28,1.51,.85,1.99s1.29,.72,2.18,.72Z"/><path class="w" d="M387.56,534.08c0-2.47,.57-4.44,1.71-5.9,1.14-1.46,2.66-2.19,4.54-2.19s3.44,.68,4.53,2.05l.13-1.76h2.48v15.47c0,2.05-.61,3.67-1.82,4.85-1.21,1.18-2.85,1.77-4.9,1.77-1.14,0-2.26-.24-3.35-.73s-1.93-1.16-2.5-2.01l1.41-1.63c1.16,1.44,2.58,2.15,4.26,2.15,1.32,0,2.35-.37,3.08-1.11,.74-.74,1.11-1.79,1.11-3.13v-1.36c-1.08,1.25-2.56,1.88-4.44,1.88s-3.36-.75-4.5-2.24-1.72-3.53-1.72-6.11Zm2.72,.31c0,1.79,.37,3.19,1.1,4.21s1.76,1.53,3.08,1.53c1.71,0,2.96-.78,3.76-2.33v-7.24c-.83-1.51-2.08-2.27-3.74-2.27-1.32,0-2.35,.51-3.09,1.54s-1.11,2.54-1.11,4.56Z"/><path class="w" d="M411.61,542.43c-2.15,0-3.9-.71-5.24-2.12-1.35-1.41-2.02-3.3-2.02-5.66v-.5c0-1.57,.3-2.98,.9-4.21,.6-1.23,1.44-2.2,2.52-2.9,1.08-.7,2.25-1.05,3.51-1.05,2.06,0,3.66,.68,4.8,2.04s1.71,3.3,1.71,5.83v1.13h-10.74c.04,1.56,.5,2.83,1.37,3.79s1.99,1.44,3.33,1.44c.96,0,1.77-.2,2.43-.59s1.25-.91,1.74-1.55l1.66,1.29c-1.33,2.04-3.32,3.06-5.98,3.06Zm-.34-14.21c-1.09,0-2.01,.4-2.75,1.19-.74,.8-1.2,1.91-1.38,3.35h7.94v-.21c-.08-1.38-.45-2.44-1.11-3.2-.66-.76-1.56-1.13-2.7-1.13Z"/><path class="w" d="M420.27,534.08c0-2.43,.58-4.39,1.73-5.87,1.15-1.48,2.66-2.22,4.53-2.22s3.33,.63,4.41,1.9v-8.26h2.71v22.5h-2.49l-.13-1.7c-1.08,1.33-2.59,1.99-4.53,1.99s-3.33-.75-4.49-2.26c-1.16-1.5-1.74-3.47-1.74-5.89v-.21Zm2.71,.31c0,1.8,.37,3.2,1.11,4.22s1.77,1.52,3.08,1.52c1.72,0,2.97-.77,3.76-2.31v-7.28c-.81-1.49-2.06-2.24-3.74-2.24-1.33,0-2.36,.51-3.11,1.54s-1.11,2.54-1.11,4.56Z"/><path class="w" d="M223.96,614.14h-2.83v-9.86h-10.75v9.86h-2.81v-21.33h2.81v9.17h10.75v-9.17h2.83v21.33Z"/><path class="w" d="M243.27,595.11h-6.86v19.03h-2.8v-19.03h-6.84v-2.3h16.49v2.3Z"/><path class="w" d="M261.41,595.11h-6.86v19.03h-2.8v-19.03h-6.84v-2.3h16.49v2.3Z"/><path class="w" d="M267.38,605.79v8.35h-2.81v-21.33h7.87c2.33,0,4.16,.6,5.49,1.79,1.32,1.19,1.98,2.77,1.98,4.73,0,2.07-.65,3.67-1.94,4.78-1.29,1.12-3.15,1.68-5.56,1.68h-5.02Zm0-2.3h5.05c1.5,0,2.66-.35,3.46-1.06s1.2-1.73,1.2-3.07-.4-2.29-1.2-3.05c-.8-.76-1.9-1.16-3.3-1.19h-5.21v8.38Z"/><path class="w" d="M289.78,604.63c-2.41-.69-4.17-1.55-5.27-2.56-1.1-1.01-1.65-2.26-1.65-3.74,0-1.68,.67-3.07,2.01-4.17,1.34-1.1,3.09-1.65,5.24-1.65,1.46,0,2.77,.28,3.92,.85,1.15,.57,2.04,1.35,2.67,2.34,.63,1,.94,2.08,.94,3.27h-2.83c0-1.29-.41-2.31-1.23-3.05-.82-.74-1.98-1.11-3.47-1.11-1.39,0-2.47,.31-3.25,.92-.78,.61-1.16,1.46-1.16,2.55,0,.87,.37,1.61,1.11,2.21s1.99,1.15,3.77,1.65c1.77,.5,3.16,1.05,4.16,1.65,1,.6,1.74,1.3,2.23,2.1,.48,.8,.72,1.74,.72,2.83,0,1.73-.67,3.11-2.02,4.15-1.35,1.04-3.15,1.56-5.41,1.56-1.46,0-2.83-.28-4.1-.84-1.27-.56-2.25-1.33-2.94-2.31-.69-.98-1.03-2.08-1.03-3.33h2.83c0,1.29,.48,2.31,1.43,3.05,.95,.75,2.22,1.12,3.82,1.12,1.48,0,2.62-.3,3.41-.91s1.19-1.43,1.19-2.48-.37-1.85-1.1-2.42c-.73-.57-2.06-1.14-3.98-1.69Z"/><path class="w" d="M311.55,611.84h10.11v2.3h-12.93v-21.33h2.83v19.03Z"/><path class="w" d="M323.72,606.07c0-1.55,.3-2.95,.92-4.19s1.46-2.2,2.55-2.87,2.33-1.01,3.73-1.01c2.16,0,3.9,.75,5.24,2.24,1.33,1.49,2,3.48,2,5.96v.19c0,1.54-.3,2.93-.89,4.15s-1.44,2.18-2.53,2.86c-1.1,.68-2.36,1.03-3.79,1.03-2.15,0-3.89-.75-5.22-2.24-1.33-1.49-2-3.47-2-5.93v-.19Zm2.72,.32c0,1.76,.41,3.17,1.22,4.23,.81,1.06,1.91,1.6,3.27,1.6s2.47-.54,3.28-1.62,1.22-2.59,1.22-4.53c0-1.74-.41-3.15-1.24-4.23-.83-1.08-1.92-1.62-3.29-1.62s-2.42,.53-3.24,1.6-1.23,2.59-1.23,4.57Z"/><path class="w" d="M351.33,614.14c-.16-.31-.28-.87-.38-1.67-1.26,1.31-2.76,1.96-4.51,1.96-1.56,0-2.84-.44-3.85-1.33-1-.88-1.5-2-1.5-3.36,0-1.65,.63-2.93,1.88-3.85,1.25-.91,3.02-1.37,5.3-1.37h2.64v-1.25c0-.95-.28-1.7-.85-2.26s-1.4-.84-2.5-.84c-.97,0-1.78,.24-2.43,.73s-.98,1.08-.98,1.77h-2.72c0-.79,.28-1.55,.84-2.29,.56-.74,1.32-1.32,2.29-1.75,.96-.43,2.02-.64,3.17-.64,1.83,0,3.26,.46,4.29,1.37,1.04,.91,1.57,2.17,1.61,3.77v7.29c0,1.46,.19,2.61,.56,3.47v.23h-2.84Zm-4.5-2.07c.85,0,1.66-.22,2.42-.66s1.31-1.01,1.66-1.71v-3.25h-2.12c-3.32,0-4.98,.97-4.98,2.92,0,.85,.28,1.51,.85,1.99s1.29,.72,2.18,.72Z"/><path class="w" d="M357.21,606.08c0-2.43,.58-4.39,1.73-5.87,1.15-1.48,2.66-2.22,4.53-2.22s3.33,.63,4.41,1.9v-8.26h2.71v22.5h-2.49l-.13-1.7c-1.08,1.33-2.59,1.99-4.53,1.99s-3.33-.75-4.49-2.26c-1.16-1.5-1.74-3.47-1.74-5.89v-.21Zm2.71,.31c0,1.8,.37,3.2,1.11,4.22s1.77,1.52,3.08,1.52c1.72,0,2.97-.77,3.76-2.31v-7.28c-.81-1.49-2.06-2.24-3.74-2.24-1.33,0-2.36,.51-3.11,1.54s-1.11,2.54-1.11,4.56Z"/><path class="w" d="M382.64,614.14v-21.33h6.97c2.31,0,4.05,.48,5.22,1.44s1.75,2.37,1.75,4.25c0,1-.28,1.88-.85,2.64s-1.34,1.36-2.31,1.78c1.15,.32,2.06,.94,2.73,1.84,.67,.9,1,1.98,1,3.23,0,1.91-.62,3.42-1.86,4.51s-2.99,1.64-5.26,1.64h-7.4Zm2.81-12.23h4.25c1.23,0,2.21-.31,2.95-.92,.74-.62,1.11-1.45,1.11-2.51,0-1.17-.34-2.03-1.03-2.56s-1.72-.8-3.12-.8h-4.16v6.8Zm0,2.26v7.68h4.64c1.31,0,2.34-.34,3.1-1.02,.76-.68,1.14-1.61,1.14-2.8,0-2.57-1.4-3.85-4.19-3.85h-4.69Z"/><path class="w" d="M410.67,614.14c-.16-.31-.28-.87-.38-1.67-1.26,1.31-2.76,1.96-4.51,1.96-1.56,0-2.84-.44-3.85-1.33-1-.88-1.5-2-1.5-3.36,0-1.65,.63-2.93,1.88-3.85,1.25-.91,3.02-1.37,5.3-1.37h2.64v-1.25c0-.95-.28-1.7-.85-2.26s-1.4-.84-2.5-.84c-.97,0-1.78,.24-2.43,.73s-.98,1.08-.98,1.77h-2.72c0-.79,.28-1.55,.84-2.29,.56-.74,1.32-1.32,2.29-1.75,.96-.43,2.02-.64,3.17-.64,1.83,0,3.26,.46,4.29,1.37,1.04,.91,1.57,2.17,1.61,3.77v7.29c0,1.46,.19,2.61,.56,3.47v.23h-2.84Zm-4.5-2.07c.85,0,1.66-.22,2.42-.66s1.31-1.01,1.66-1.71v-3.25h-2.12c-3.32,0-4.98,.97-4.98,2.92,0,.85,.28,1.51,.85,1.99s1.29,.72,2.18,.72Z"/><path class="w" d="M420.15,614.14h-2.71v-22.5h2.71v22.5Z"/><path class="w" d="M434.27,614.14c-.16-.31-.28-.87-.38-1.67-1.26,1.31-2.76,1.96-4.51,1.96-1.56,0-2.84-.44-3.85-1.33-1-.88-1.5-2-1.5-3.36,0-1.65,.63-2.93,1.88-3.85,1.25-.91,3.02-1.37,5.3-1.37h2.64v-1.25c0-.95-.28-1.7-.85-2.26s-1.4-.84-2.5-.84c-.97,0-1.78,.24-2.43,.73s-.98,1.08-.98,1.77h-2.72c0-.79,.28-1.55,.84-2.29,.56-.74,1.32-1.32,2.29-1.75,.96-.43,2.02-.64,3.17-.64,1.83,0,3.26,.46,4.29,1.37,1.04,.91,1.57,2.17,1.61,3.77v7.29c0,1.46,.19,2.61,.56,3.47v.23h-2.84Zm-4.5-2.07c.85,0,1.66-.22,2.42-.66s1.31-1.01,1.66-1.71v-3.25h-2.12c-3.32,0-4.98,.97-4.98,2.92,0,.85,.28,1.51,.85,1.99s1.29,.72,2.18,.72Z"/><path class="w" d="M443.37,598.29l.09,1.99c1.21-1.52,2.79-2.29,4.75-2.29,3.35,0,5.04,1.89,5.07,5.67v10.47h-2.71v-10.49c0-1.14-.27-1.99-.78-2.53-.51-.55-1.31-.82-2.4-.82-.88,0-1.65,.23-2.31,.7s-1.18,1.08-1.55,1.85v11.29h-2.71v-15.85h2.56Z"/><path class="w" d="M463.71,612.22c.97,0,1.81-.29,2.53-.88s1.12-1.32,1.2-2.2h2.56c-.05,.91-.36,1.77-.94,2.59s-1.35,1.47-2.31,1.96c-.96,.49-1.98,.73-3.05,.73-2.16,0-3.88-.72-5.15-2.16-1.28-1.44-1.91-3.41-1.91-5.91v-.45c0-1.54,.28-2.92,.85-4.12s1.38-2.13,2.44-2.8c1.06-.66,2.31-1,3.76-1,1.78,0,3.25,.53,4.43,1.6s1.8,2.45,1.88,4.15h-2.56c-.08-1.03-.47-1.87-1.17-2.53-.7-.66-1.56-.99-2.58-.99-1.38,0-2.44,.5-3.2,1.49-.76,.99-1.14,2.42-1.14,4.3v.51c0,1.83,.38,3.23,1.13,4.22s1.83,1.48,3.22,1.48Z"/><path class="w" d="M479.64,614.43c-2.15,0-3.9-.71-5.24-2.12-1.35-1.41-2.02-3.3-2.02-5.66v-.5c0-1.57,.3-2.98,.9-4.21,.6-1.23,1.44-2.2,2.52-2.9,1.08-.7,2.25-1.05,3.51-1.05,2.06,0,3.66,.68,4.8,2.04s1.71,3.3,1.71,5.83v1.13h-10.74c.04,1.56,.5,2.83,1.37,3.79s1.99,1.44,3.33,1.44c.96,0,1.77-.2,2.43-.59s1.25-.91,1.74-1.55l1.66,1.29c-1.33,2.04-3.32,3.06-5.98,3.06Zm-.34-14.21c-1.09,0-2.01,.4-2.75,1.19-.74,.8-1.2,1.91-1.38,3.35h7.94v-.21c-.08-1.38-.45-2.44-1.11-3.2-.66-.76-1.56-1.13-2.7-1.13Z"/><path class="w" d="M496.62,600.72c-.41-.07-.85-.1-1.33-.1-1.78,0-2.98,.76-3.62,2.27v11.25h-2.71v-15.85h2.64l.04,1.83c.89-1.42,2.15-2.12,3.78-2.12,.53,0,.93,.07,1.2,.21v2.52Z"/></g><g><line class="j" x1="178.2" y1="567.81" x2="547.2" y2="567.81"/><path class="w" d="M537.2,558.27v19.08c0,.9,1.01,1.42,1.75,.9l13.44-9.54c.62-.44,.62-1.36,0-1.8l-13.44-9.54c-.73-.52-1.75,0-1.75,.9Z"/></g><path class="i" d="M590,534h-21.68c-1.83,0-3.32,1.49-3.32,3.32v26.36c0,1.83-1.49,3.32-3.32,3.32h-5.68"/><path class="i" d="M589.96,600.12h-21.68c-1.83,0-3.32-1.49-3.32-3.32v-26.36c0-1.83-1.49-3.32-3.32-3.32h25.86"/><line class="j" x1="590" y1="567" x2="669" y2="567"/><path class="w" d="M657,557.84v19.08c0,.9,1.01,1.42,1.75,.9l13.44-9.54c.62-.44,.62-1.36,0-1.8l-13.44-9.54c-.73-.52-1.75,0-1.75,.9Z"/><rect class="s" x="1568" y="628.63" width="40" height="212" rx="7.66" ry="7.66"/><g><path class="w" d="M1589.67,817.3h6.96v2.34h-17.77v-6.56c0-1.95,.5-3.47,1.49-4.57s2.31-1.65,3.94-1.65c1.73,0,3.05,.54,3.99,1.62,.93,1.08,1.4,2.62,1.4,4.63v4.19Zm-1.92,0v-4.21c0-1.25-.29-2.21-.89-2.88-.59-.67-1.44-1-2.56-1-1.06,0-1.91,.33-2.54,1-.64,.67-.97,1.58-.99,2.75v4.35h6.98Z"/><path class="w" d="M1585.02,801.97c-1.23-1-1.84-2.3-1.84-3.91,0-2.79,1.57-4.2,4.72-4.22h8.73v2.26h-8.74c-.95,0-1.66,.23-2.11,.65-.46,.43-.68,1.09-.68,2,0,.73,.2,1.38,.59,1.93,.39,.55,.9,.99,1.54,1.29h9.41v2.26h-18.75v-2.26h7.14Z"/><path class="w" d="M1596.63,782.3c-.26,.13-.72,.24-1.39,.32,1.09,1.05,1.64,2.3,1.64,3.76,0,1.3-.37,2.37-1.1,3.2-.74,.83-1.67,1.25-2.8,1.25-1.38,0-2.44-.52-3.2-1.57-.76-1.04-1.14-2.52-1.14-4.41v-2.2h-1.04c-.79,0-1.42,.24-1.89,.71-.47,.47-.7,1.17-.7,2.09,0,.81,.2,1.48,.61,2.03,.41,.54,.9,.82,1.48,.82v2.27c-.66,0-1.3-.23-1.91-.7-.62-.47-1.1-1.1-1.46-1.9s-.54-1.68-.54-2.64c0-1.52,.38-2.71,1.14-3.58,.76-.86,1.81-1.31,3.14-1.34h6.08c1.21,0,2.18-.15,2.89-.46h.2v2.37Zm-1.72,3.75c0-.71-.18-1.38-.55-2.01s-.84-1.09-1.43-1.38h-2.71v1.77c0,2.77,.81,4.15,2.43,4.15,.71,0,1.26-.24,1.66-.71s.6-1.08,.6-1.82Z"/><path class="w" d="M1583.42,774.72l1.66-.07c-1.27-1.01-1.9-2.33-1.9-3.96,0-2.79,1.57-4.2,4.72-4.22h8.73v2.26h-8.74c-.95,0-1.66,.23-2.11,.65-.46,.43-.68,1.09-.68,2,0,.73,.2,1.38,.59,1.93,.39,.55,.9,.99,1.54,1.29h9.41v2.26h-13.21v-2.14Z"/><path class="w" d="M1580.22,760h3.2v-2.46h1.75v2.46h8.2c.53,0,.93-.11,1.19-.33s.4-.59,.4-1.12c0-.26-.05-.62-.15-1.07h1.82c.16,.59,.24,1.17,.24,1.73,0,1.01-.31,1.77-.92,2.28-.61,.51-1.48,.77-2.6,.77h-8.19v2.41h-1.75v-2.41h-3.2v-2.26Z"/><path class="w" d="M1589.9,755.74c-1.29,0-2.46-.25-3.49-.76-1.03-.51-1.83-1.22-2.39-2.12-.56-.91-.84-1.94-.84-3.11,0-1.8,.62-3.25,1.87-4.36,1.25-1.11,2.9-1.67,4.97-1.67h.16c1.29,0,2.44,.25,3.46,.74,1.02,.49,1.82,1.2,2.39,2.11,.57,.92,.85,1.97,.85,3.16,0,1.79-.62,3.24-1.87,4.35-1.25,1.11-2.89,1.67-4.94,1.67h-.16Zm.27-2.27c1.46,0,2.64-.34,3.53-1.02s1.33-1.59,1.33-2.73-.45-2.06-1.35-2.73-2.16-1.01-3.78-1.01c-1.45,0-2.62,.34-3.52,1.03s-1.35,1.6-1.35,2.74,.44,2.01,1.33,2.7c.89,.68,2.16,1.03,3.81,1.03Z"/><path class="w" d="M1583.42,738.76l1.46-.06c-1.14-.97-1.71-2.27-1.71-3.92,0-1.85,.71-3.1,2.12-3.77-.63-.44-1.15-1.01-1.54-1.72-.39-.7-.59-1.54-.59-2.5,0-2.9,1.53-4.37,4.6-4.42h8.85v2.26h-8.72c-.94,0-1.65,.22-2.12,.65s-.7,1.16-.7,2.17c0,.84,.25,1.53,.75,2.09,.5,.55,1.17,.87,2.02,.96h8.76v2.27h-8.66c-1.92,0-2.88,.94-2.88,2.82,0,1.48,.63,2.49,1.89,3.04h9.64v2.26h-13.21v-2.14Z"/><path class="w" d="M1580.77,700.64v5.71h15.86v2.33h-15.86v5.7h-1.92v-13.75h1.92Z"/><path class="w" d="M1589.9,700.16c-1.29,0-2.46-.25-3.49-.76-1.03-.51-1.83-1.22-2.39-2.12-.56-.91-.84-1.94-.84-3.11,0-1.8,.62-3.25,1.87-4.36,1.25-1.11,2.9-1.67,4.97-1.67h.16c1.29,0,2.44,.25,3.46,.74,1.02,.49,1.82,1.2,2.39,2.11,.57,.92,.85,1.97,.85,3.16,0,1.79-.62,3.24-1.87,4.35-1.25,1.11-2.89,1.67-4.94,1.67h-.16Zm.27-2.27c1.46,0,2.64-.34,3.53-1.02s1.33-1.59,1.33-2.73-.45-2.06-1.35-2.73-2.16-1.01-3.78-1.01c-1.45,0-2.62,.34-3.52,1.03s-1.35,1.6-1.35,2.74,.44,2.01,1.33,2.7c.89,.68,2.16,1.03,3.81,1.03Z"/><path class="w" d="M1590.51,681.62l1.48,1.42h4.64v2.26h-18.75v-2.26h11.34l-1.45-1.21-4.35-4.11v-2.75l5.52,5.14,7.69-5.74v2.65l-6.12,4.6Z"/><path class="w" d="M1596.87,667.4c0,1.79-.59,3.25-1.76,4.37-1.18,1.12-2.75,1.69-4.72,1.69h-.42c-1.31,0-2.48-.25-3.51-.75-1.03-.5-1.84-1.2-2.42-2.1-.58-.9-.87-1.87-.87-2.92,0-1.72,.57-3.05,1.7-4,1.13-.95,2.75-1.43,4.86-1.43h.94v8.95c1.3-.03,2.35-.41,3.16-1.14,.8-.73,1.2-1.65,1.2-2.78,0-.8-.16-1.47-.49-2.03-.33-.55-.76-1.04-1.29-1.45l1.07-1.38c1.7,1.11,2.55,2.77,2.55,4.98Zm-11.84,.28c0,.91,.33,1.68,1,2.29,.66,.62,1.59,1,2.79,1.15v-6.62h-.17c-1.15,.07-2.04,.37-2.67,.93-.63,.55-.95,1.3-.95,2.25Z"/><path class="w" d="M1583.42,657.5l1.66-.07c-1.27-1.01-1.9-2.33-1.9-3.96,0-2.79,1.57-4.2,4.72-4.22h8.73v2.26h-8.74c-.95,0-1.66,.23-2.11,.65-.46,.43-.68,1.09-.68,2,0,.73,.2,1.38,.59,1.93,.39,.55,.9,.99,1.54,1.29h9.41v2.26h-13.21v-2.14Z"/></g><g><path class="o" d="M1154.93,726.1l11.07-11.05-7.89-7.89c-5.36,3.4-12.47,1.82-15.87-3.54-2.39-3.77-2.39-8.58,0-12.35l-7.89-7.87-54.1,54.1c-1.74,1.74-1.74,4.56,0,6.31l25.22,25.22c1.74,1.72,4.54,1.72,6.28,0l48.17-48.17"/><circle class="aa" cx="1128.42" cy="708.47" r="2.02"/><circle class="aa" cx="1134.47" cy="714.52" r="2.02"/><circle class="aa" cx="1140.53" cy="720.58" r="2.02"/></g><g id="f"><path class="u" d="M1786.69,716.15h18.46v-12.13c-6.7-1.41-10.98-7.99-9.57-14.69,1.01-4.8,4.77-8.56,9.57-9.57v-12.13h-90.3c-2.78-.11-5.13,2.06-5.24,4.84h0v38.82c.11,2.78,2.45,4.96,5.23,4.85h80.41"/><path class="m" d="M1786.69,716.15h18.46v-12.13c-6.7-1.41-10.98-7.99-9.57-14.69,1.01-4.8,4.77-8.56,9.57-9.57v-12.13h-90.3c-2.78-.11-5.13,2.06-5.24,4.84h0v38.82c.11,2.78,2.45,4.96,5.23,4.85h80.41"/><g><path class="y" d="M1735.59,682.2h2.43v12.47c.08,1.48-.47,2.92-1.5,3.98-1.12,.98-2.57,1.48-4.05,1.41-1.49,.1-2.96-.38-4.1-1.33-1.01-.98-1.54-2.35-1.46-3.76h2.3c-.07,.89,.24,1.77,.85,2.43,.65,.61,1.53,.92,2.43,.85,.9,.06,1.78-.27,2.43-.9,.59-.67,.91-1.53,.9-2.43l-.22-12.71Z"/><path class="y" d="M1745.68,694.25l.34,2.43,.51-2.09,3.47-12.3h1.96l3.4,12.3,.49,2.13,.39-2.43,2.74-12.13h2.43l-4.27,17.56h-2.13l-3.61-12.83-.29-1.36-.27,1.36-3.86,12.83h-2.13l-4.24-17.61h2.3l2.79,12.13Z"/><path class="y" d="M1776.22,684.09h-5.65v15.64h-2.43v-15.72h-5.68v-1.89h13.63l.12,1.96Z"/></g></g><g><path class="w" d="M858.54,200.37h-2.17v-7.56h-8.24v7.56h-2.16v-16.35h2.16v7.03h8.24v-7.03h2.17v16.35Z"/><path class="w" d="M861.49,194.18c0-1.19,.23-2.26,.7-3.21s1.12-1.68,1.95-2.2,1.79-.77,2.86-.77c1.65,0,2.99,.57,4.01,1.72,1.02,1.15,1.53,2.67,1.53,4.57v.15c0,1.18-.23,2.24-.68,3.18-.45,.94-1.1,1.67-1.94,2.2-.84,.52-1.81,.79-2.9,.79-1.65,0-2.98-.57-4-1.72-1.02-1.15-1.53-2.66-1.53-4.55v-.15Zm2.09,.25c0,1.35,.31,2.43,.94,3.25s1.46,1.22,2.51,1.22,1.89-.41,2.52-1.24c.62-.83,.93-1.99,.93-3.48,0-1.33-.32-2.41-.95-3.24-.63-.83-1.47-1.24-2.52-1.24s-1.85,.41-2.48,1.22-.94,1.98-.94,3.5Z"/><path class="w" d="M882.24,197.15c0-.56-.21-1-.63-1.31-.42-.31-1.16-.58-2.21-.8s-1.89-.49-2.5-.81c-.62-.31-1.07-.69-1.37-1.12s-.44-.95-.44-1.55c0-1,.42-1.84,1.26-2.53,.84-.69,1.92-1.03,3.23-1.03,1.38,0,2.5,.36,3.35,1.07s1.29,1.62,1.29,2.73h-2.09c0-.57-.24-1.06-.72-1.47-.48-.41-1.09-.62-1.83-.62s-1.35,.16-1.77,.49-.64,.76-.64,1.29c0,.5,.2,.88,.59,1.13s1.11,.5,2.15,.73,1.88,.51,2.52,.83,1.12,.71,1.43,1.16c.31,.45,.47,1,.47,1.66,0,1.09-.43,1.96-1.3,2.61-.87,.65-2,.98-3.38,.98-.97,0-1.83-.17-2.58-.52s-1.33-.83-1.76-1.44c-.42-.62-.63-1.29-.63-2h2.08c.04,.7,.32,1.25,.84,1.66,.52,.41,1.21,.61,2.06,.61,.79,0,1.42-.16,1.89-.48,.48-.32,.71-.74,.71-1.27Z"/><path class="w" d="M889.84,185.28v2.94h2.27v1.61h-2.27v7.54c0,.49,.1,.85,.3,1.1s.55,.37,1.03,.37c.24,0,.57-.04,.99-.13v1.67c-.55,.15-1.08,.22-1.59,.22-.93,0-1.63-.28-2.1-.84-.47-.56-.71-1.36-.71-2.39v-7.54h-2.21v-1.61h2.21v-2.94h2.08Z"/><path class="w" d="M894.47,199.28c0-.36,.11-.66,.32-.9,.21-.24,.53-.36,.96-.36s.75,.12,.97,.36,.33,.54,.33,.9-.11,.63-.33,.86-.54,.35-.97,.35-.75-.12-.96-.35c-.21-.23-.32-.52-.32-.86Zm.01-9.92c0-.36,.11-.66,.32-.9,.21-.24,.53-.36,.96-.36s.75,.12,.97,.36,.33,.54,.33,.9-.11,.63-.33,.86-.54,.35-.97,.35-.75-.12-.96-.35c-.21-.23-.32-.52-.32-.86Z"/><path class="w" d="M909.19,194.74l-1.3,1.36v4.27h-2.08v-17.25h2.08v10.43l1.11-1.34,3.78-4h2.53l-4.73,5.08,5.28,7.08h-2.44l-4.23-5.63Z"/><path class="w" d="M916.9,194.18c0-1.19,.23-2.26,.7-3.21s1.12-1.68,1.95-2.2,1.79-.77,2.86-.77c1.65,0,2.99,.57,4.01,1.72,1.02,1.15,1.53,2.67,1.53,4.57v.15c0,1.18-.23,2.24-.68,3.18-.45,.94-1.1,1.67-1.94,2.2-.84,.52-1.81,.79-2.9,.79-1.65,0-2.98-.57-4-1.72-1.02-1.15-1.53-2.66-1.53-4.55v-.15Zm2.09,.25c0,1.35,.31,2.43,.94,3.25s1.46,1.22,2.51,1.22,1.89-.41,2.52-1.24c.62-.83,.93-1.99,.93-3.48,0-1.33-.32-2.41-.95-3.24-.63-.83-1.47-1.24-2.52-1.24s-1.85,.41-2.48,1.22-.94,1.98-.94,3.5Z"/><path class="w" d="M932.54,188.22l.07,1.53c.93-1.17,2.14-1.75,3.64-1.75,2.57,0,3.86,1.45,3.88,4.35v8.03h-2.08v-8.04c0-.88-.21-1.52-.6-1.94-.39-.42-1.01-.63-1.84-.63-.67,0-1.27,.18-1.78,.54-.51,.36-.91,.83-1.19,1.42v8.66h-2.08v-12.15h1.96Z"/><path class="w" d="M942.77,194.19c0-1.89,.44-3.4,1.31-4.52,.88-1.12,2.04-1.68,3.48-1.68s2.64,.52,3.47,1.57l.1-1.35h1.9v11.86c0,1.57-.47,2.81-1.4,3.72-.93,.91-2.18,1.36-3.76,1.36-.88,0-1.73-.19-2.57-.56s-1.48-.89-1.92-1.54l1.08-1.25c.89,1.1,1.98,1.65,3.27,1.65,1.01,0,1.8-.28,2.36-.85s.85-1.37,.85-2.4v-1.04c-.83,.96-1.96,1.44-3.4,1.44s-2.57-.57-3.45-1.72-1.32-2.71-1.32-4.68Zm2.09,.24c0,1.37,.28,2.45,.84,3.23,.56,.78,1.35,1.17,2.36,1.17,1.31,0,2.27-.6,2.89-1.79v-5.55c-.64-1.16-1.59-1.74-2.86-1.74-1.01,0-1.8,.39-2.37,1.18s-.85,1.95-.85,3.49Z"/><path class="w" d="M960.49,194.27h-5.48v-1.7h5.48v1.7Z"/><path class="w" d="M970.01,200.37c-.12-.24-.22-.67-.29-1.28-.97,1-2.12,1.5-3.46,1.5-1.2,0-2.18-.34-2.95-1.02-.77-.68-1.15-1.54-1.15-2.58,0-1.27,.48-2.25,1.44-2.95,.96-.7,2.32-1.05,4.06-1.05h2.02v-.95c0-.73-.22-1.3-.65-1.73-.43-.43-1.08-.65-1.92-.65-.74,0-1.36,.19-1.86,.56s-.75,.83-.75,1.36h-2.09c0-.61,.22-1.19,.65-1.76,.43-.56,1.01-1.01,1.75-1.34s1.55-.49,2.43-.49c1.4,0,2.5,.35,3.29,1.05,.79,.7,1.21,1.66,1.24,2.89v5.59c0,1.12,.14,2,.43,2.66v.18h-2.18Zm-3.45-1.58c.65,0,1.27-.17,1.85-.51s1.01-.77,1.27-1.31v-2.49h-1.63c-2.55,0-3.82,.75-3.82,2.23,0,.65,.22,1.16,.65,1.53s.99,.55,1.67,.55Z"/><path class="w" d="M974.52,194.19c0-1.86,.44-3.36,1.33-4.5,.88-1.13,2.04-1.7,3.47-1.7s2.55,.49,3.38,1.46v-6.33h2.08v17.25h-1.91l-.1-1.3c-.83,1.02-1.99,1.53-3.47,1.53s-2.55-.58-3.44-1.73c-.89-1.15-1.33-2.66-1.33-4.51v-.16Zm2.08,.24c0,1.38,.28,2.46,.85,3.23s1.36,1.17,2.36,1.17c1.32,0,2.28-.59,2.89-1.77v-5.58c-.62-1.15-1.58-1.72-2.86-1.72-1.02,0-1.81,.39-2.38,1.18s-.85,1.95-.85,3.49Z"/><path class="w" d="M989.95,188.22l.06,1.35c.89-1.05,2.09-1.57,3.61-1.57,1.7,0,2.86,.65,3.47,1.95,.4-.58,.93-1.06,1.58-1.42s1.41-.54,2.3-.54c2.67,0,4.02,1.41,4.07,4.23v8.14h-2.08v-8.02c0-.87-.2-1.52-.59-1.95-.4-.43-1.06-.65-2-.65-.77,0-1.41,.23-1.92,.69-.51,.46-.81,1.08-.89,1.86v8.06h-2.09v-7.96c0-1.77-.87-2.65-2.59-2.65-1.36,0-2.29,.58-2.8,1.74v8.87h-2.08v-12.15h1.97Z"/><path class="w" d="M1008.16,185c0-.34,.1-.62,.31-.85s.51-.35,.92-.35,.71,.12,.92,.35,.31,.52,.31,.85-.1,.62-.31,.84-.52,.34-.92,.34-.71-.11-.92-.34-.31-.51-.31-.84Zm2.25,15.37h-2.08v-12.15h2.08v12.15Z"/><path class="w" d="M1015.7,188.22l.07,1.53c.93-1.17,2.14-1.75,3.64-1.75,2.57,0,3.86,1.45,3.88,4.35v8.03h-2.08v-8.04c0-.88-.21-1.52-.6-1.94-.39-.42-1.01-.63-1.84-.63-.67,0-1.27,.18-1.78,.54-.51,.36-.91,.83-1.19,1.42v8.66h-2.08v-12.15h1.96Z"/><path class="w" d="M1026.47,199.28c0-.36,.11-.66,.32-.9,.21-.24,.53-.36,.96-.36s.75,.12,.97,.36,.33,.54,.33,.9-.11,.63-.33,.86-.54,.35-.97,.35-.75-.12-.96-.35c-.21-.23-.32-.52-.32-.86Z"/><path class="w" d="M1037.52,200.6c-1.65,0-2.99-.54-4.02-1.62-1.03-1.08-1.55-2.53-1.55-4.34v-.38c0-1.21,.23-2.28,.69-3.23,.46-.95,1.1-1.69,1.93-2.22,.83-.54,1.72-.8,2.69-.8,1.58,0,2.81,.52,3.68,1.56s1.31,2.53,1.31,4.47v.86h-8.23c.03,1.2,.38,2.17,1.05,2.9,.67,.74,1.52,1.11,2.55,1.11,.73,0,1.36-.15,1.87-.45,.51-.3,.95-.7,1.34-1.19l1.27,.99c-1.02,1.56-2.55,2.35-4.58,2.35Zm-.26-10.89c-.84,0-1.54,.31-2.11,.92-.57,.61-.92,1.47-1.06,2.57h6.09v-.16c-.06-1.06-.34-1.87-.85-2.45-.51-.58-1.2-.87-2.07-.87Z"/><path class="w" d="M1048.74,192.66l2.7-4.44h2.43l-3.97,6.01,4.1,6.14h-2.4l-2.81-4.55-2.81,4.55h-2.41l4.1-6.14-3.98-6.01h2.4l2.66,4.44Z"/><path class="w" d="M1063.56,200.37c-.12-.24-.22-.67-.29-1.28-.97,1-2.12,1.5-3.46,1.5-1.2,0-2.18-.34-2.95-1.02-.77-.68-1.15-1.54-1.15-2.58,0-1.27,.48-2.25,1.44-2.95,.96-.7,2.32-1.05,4.06-1.05h2.02v-.95c0-.73-.22-1.3-.65-1.73-.43-.43-1.08-.65-1.92-.65-.74,0-1.36,.19-1.86,.56s-.75,.83-.75,1.36h-2.09c0-.61,.22-1.19,.65-1.76,.43-.56,1.01-1.01,1.75-1.34s1.55-.49,2.43-.49c1.4,0,2.5,.35,3.29,1.05,.79,.7,1.21,1.66,1.24,2.89v5.59c0,1.12,.14,2,.43,2.66v.18h-2.18Zm-3.45-1.58c.65,0,1.27-.17,1.85-.51s1.01-.77,1.27-1.31v-2.49h-1.63c-2.55,0-3.82,.75-3.82,2.23,0,.65,.22,1.16,.65,1.53s.99,.55,1.67,.55Z"/><path class="w" d="M1070.53,188.22l.06,1.35c.89-1.05,2.09-1.57,3.61-1.57,1.7,0,2.86,.65,3.47,1.95,.4-.58,.93-1.06,1.58-1.42s1.41-.54,2.3-.54c2.67,0,4.02,1.41,4.07,4.23v8.14h-2.08v-8.02c0-.87-.2-1.52-.59-1.95-.4-.43-1.06-.65-2-.65-.77,0-1.41,.23-1.92,.69-.51,.46-.81,1.08-.89,1.86v8.06h-2.09v-7.96c0-1.77-.87-2.65-2.59-2.65-1.36,0-2.29,.58-2.8,1.74v8.87h-2.08v-12.15h1.97Z"/><path class="w" d="M1099,194.43c0,1.85-.42,3.34-1.27,4.47-.85,1.13-1.99,1.7-3.44,1.7s-2.63-.47-3.48-1.4v5.85h-2.08v-16.82h1.9l.1,1.35c.85-1.05,2.02-1.57,3.53-1.57s2.62,.55,3.46,1.65,1.27,2.63,1.27,4.59v.19Zm-2.08-.24c0-1.37-.29-2.45-.88-3.25s-1.38-1.19-2.4-1.19c-1.26,0-2.2,.56-2.83,1.67v5.81c.62,1.11,1.57,1.66,2.85,1.66,1,0,1.79-.4,2.38-1.19,.59-.79,.88-1.96,.88-3.52Z"/><path class="w" d="M1103.89,200.37h-2.08v-17.25h2.08v17.25Z"/><path class="w" d="M1112.26,200.6c-1.65,0-2.99-.54-4.02-1.62-1.03-1.08-1.55-2.53-1.55-4.34v-.38c0-1.21,.23-2.28,.69-3.23,.46-.95,1.1-1.69,1.93-2.22,.83-.54,1.72-.8,2.69-.8,1.58,0,2.81,.52,3.68,1.56s1.31,2.53,1.31,4.47v.86h-8.23c.03,1.2,.38,2.17,1.05,2.9,.67,.74,1.52,1.11,2.55,1.11,.73,0,1.36-.15,1.87-.45,.51-.3,.95-.7,1.34-1.19l1.27,.99c-1.02,1.56-2.55,2.35-4.58,2.35Zm-.26-10.89c-.84,0-1.54,.31-2.11,.92-.57,.61-.92,1.47-1.06,2.57h6.09v-.16c-.06-1.06-.34-1.87-.85-2.45-.51-.58-1.2-.87-2.07-.87Z"/><path class="w" d="M1119.45,199.28c0-.36,.11-.66,.32-.9,.21-.24,.53-.36,.96-.36s.75,.12,.97,.36,.33,.54,.33,.9-.11,.63-.33,.86-.54,.35-.97,.35-.75-.12-.96-.35c-.21-.23-.32-.52-.32-.86Z"/><path class="w" d="M1124.96,194.19c0-1.89,.44-3.4,1.31-4.52,.88-1.12,2.04-1.68,3.48-1.68s2.64,.52,3.47,1.57l.1-1.35h1.9v11.86c0,1.57-.47,2.81-1.4,3.72-.93,.91-2.18,1.36-3.76,1.36-.88,0-1.73-.19-2.57-.56s-1.48-.89-1.92-1.54l1.08-1.25c.89,1.1,1.98,1.65,3.27,1.65,1.01,0,1.8-.28,2.36-.85s.85-1.37,.85-2.4v-1.04c-.83,.96-1.96,1.44-3.4,1.44s-2.57-.57-3.45-1.72-1.32-2.71-1.32-4.68Zm2.09,.24c0,1.37,.28,2.45,.84,3.23,.56,.78,1.35,1.17,2.36,1.17,1.31,0,2.27-.6,2.89-1.79v-5.55c-.64-1.16-1.59-1.74-2.86-1.74-1.01,0-1.8,.39-2.37,1.18s-.85,1.95-.85,3.49Z"/><path class="w" d="M1141.75,194.74l-1.3,1.36v4.27h-2.08v-17.25h2.08v10.43l1.11-1.34,3.78-4h2.53l-4.73,5.08,5.28,7.08h-2.44l-4.23-5.63Z"/><path class="w" d="M1154.83,200.6c-1.65,0-2.99-.54-4.02-1.62-1.03-1.08-1.55-2.53-1.55-4.34v-.38c0-1.21,.23-2.28,.69-3.23,.46-.95,1.1-1.69,1.93-2.22,.83-.54,1.72-.8,2.69-.8,1.58,0,2.81,.52,3.68,1.56s1.31,2.53,1.31,4.47v.86h-8.23c.03,1.2,.38,2.17,1.05,2.9,.67,.74,1.52,1.11,2.55,1.11,.73,0,1.36-.15,1.87-.45,.51-.3,.95-.7,1.34-1.19l1.27,.99c-1.02,1.56-2.55,2.35-4.58,2.35Zm-.26-10.89c-.84,0-1.54,.31-2.11,.92-.57,.61-.92,1.47-1.06,2.57h6.09v-.16c-.06-1.06-.34-1.87-.85-2.45-.51-.58-1.2-.87-2.07-.87Z"/></g><g><path class="w" d="M858.54,472.23h-2.17v-7.56h-8.24v7.56h-2.16v-16.35h2.16v7.03h8.24v-7.03h2.17v16.35Z"/><path class="w" d="M861.49,466.04c0-1.19,.23-2.26,.7-3.21s1.12-1.68,1.95-2.2,1.79-.77,2.86-.77c1.65,0,2.99,.57,4.01,1.72,1.02,1.15,1.53,2.67,1.53,4.57v.15c0,1.18-.23,2.24-.68,3.18-.45,.94-1.1,1.67-1.94,2.2-.84,.52-1.81,.79-2.9,.79-1.65,0-2.98-.57-4-1.72-1.02-1.15-1.53-2.66-1.53-4.55v-.15Zm2.09,.25c0,1.35,.31,2.43,.94,3.25s1.46,1.22,2.51,1.22,1.89-.41,2.52-1.24c.62-.83,.93-1.99,.93-3.48,0-1.33-.32-2.41-.95-3.24-.63-.83-1.47-1.24-2.52-1.24s-1.85,.41-2.48,1.22-.94,1.98-.94,3.5Z"/><path class="w" d="M882.24,469c0-.56-.21-1-.63-1.31-.42-.31-1.16-.58-2.21-.8s-1.89-.49-2.5-.81c-.62-.31-1.07-.69-1.37-1.12s-.44-.95-.44-1.55c0-1,.42-1.84,1.26-2.53,.84-.69,1.92-1.03,3.23-1.03,1.38,0,2.5,.36,3.35,1.07s1.29,1.62,1.29,2.73h-2.09c0-.57-.24-1.06-.72-1.47-.48-.41-1.09-.62-1.83-.62s-1.35,.16-1.77,.49-.64,.76-.64,1.29c0,.5,.2,.88,.59,1.13s1.11,.5,2.15,.73,1.88,.51,2.52,.83,1.12,.71,1.43,1.16c.31,.45,.47,1,.47,1.66,0,1.09-.43,1.96-1.3,2.61-.87,.65-2,.98-3.38,.98-.97,0-1.83-.17-2.58-.52s-1.33-.83-1.76-1.44c-.42-.62-.63-1.29-.63-2h2.08c.04,.7,.32,1.25,.84,1.66,.52,.41,1.21,.61,2.06,.61,.79,0,1.42-.16,1.89-.48,.48-.32,.71-.74,.71-1.27Z"/><path class="w" d="M889.84,457.13v2.94h2.27v1.61h-2.27v7.54c0,.49,.1,.85,.3,1.1s.55,.37,1.03,.37c.24,0,.57-.04,.99-.13v1.67c-.55,.15-1.08,.22-1.59,.22-.93,0-1.63-.28-2.1-.84-.47-.56-.71-1.36-.71-2.39v-7.54h-2.21v-1.61h2.21v-2.94h2.08Z"/><path class="w" d="M894.47,471.14c0-.36,.11-.66,.32-.9,.21-.24,.53-.36,.96-.36s.75,.12,.97,.36,.33,.54,.33,.9-.11,.63-.33,.86-.54,.35-.97,.35-.75-.12-.96-.35c-.21-.23-.32-.52-.32-.86Zm.01-9.92c0-.36,.11-.66,.32-.9,.21-.24,.53-.36,.96-.36s.75,.12,.97,.36,.33,.54,.33,.9-.11,.63-.33,.86-.54,.35-.97,.35-.75-.12-.96-.35c-.21-.23-.32-.52-.32-.86Z"/><path class="w" d="M913.3,472.23c-.12-.24-.22-.67-.29-1.28-.97,1-2.12,1.5-3.46,1.5-1.2,0-2.18-.34-2.95-1.02-.77-.68-1.15-1.54-1.15-2.58,0-1.27,.48-2.25,1.44-2.95,.96-.7,2.32-1.05,4.06-1.05h2.02v-.95c0-.73-.22-1.3-.65-1.73-.43-.43-1.08-.65-1.92-.65-.74,0-1.36,.19-1.86,.56s-.75,.83-.75,1.36h-2.09c0-.61,.22-1.19,.65-1.76,.43-.56,1.01-1.01,1.75-1.34s1.55-.49,2.43-.49c1.4,0,2.5,.35,3.29,1.05,.79,.7,1.21,1.66,1.24,2.89v5.59c0,1.12,.14,2,.43,2.66v.18h-2.18Zm-3.45-1.58c.65,0,1.27-.17,1.85-.51s1.01-.77,1.27-1.31v-2.49h-1.63c-2.55,0-3.82,.75-3.82,2.23,0,.65,.22,1.16,.65,1.53s.99,.55,1.67,.55Z"/><path class="w" d="M917.8,466.05c0-1.86,.44-3.36,1.33-4.5,.88-1.13,2.04-1.7,3.47-1.7s2.55,.49,3.38,1.46v-6.33h2.08v17.25h-1.91l-.1-1.3c-.83,1.02-1.99,1.53-3.47,1.53s-2.55-.58-3.44-1.73c-.89-1.15-1.33-2.66-1.33-4.51v-.16Zm2.08,.24c0,1.38,.28,2.46,.85,3.23s1.36,1.17,2.36,1.17c1.32,0,2.28-.59,2.89-1.77v-5.58c-.62-1.15-1.58-1.72-2.86-1.72-1.02,0-1.81,.39-2.38,1.18s-.85,1.95-.85,3.49Z"/><path class="w" d="M933.23,460.08l.06,1.35c.89-1.05,2.09-1.57,3.61-1.57,1.7,0,2.86,.65,3.47,1.95,.4-.58,.93-1.06,1.58-1.42s1.41-.54,2.3-.54c2.67,0,4.02,1.41,4.07,4.23v8.14h-2.08v-8.02c0-.87-.2-1.52-.59-1.95-.4-.43-1.06-.65-2-.65-.77,0-1.41,.23-1.92,.69-.51,.46-.81,1.08-.89,1.86v8.06h-2.09v-7.96c0-1.77-.87-2.65-2.59-2.65-1.36,0-2.29,.58-2.8,1.74v8.87h-2.08v-12.15h1.97Z"/><path class="w" d="M951.45,456.85c0-.34,.1-.62,.31-.85s.51-.35,.92-.35,.71,.12,.92,.35,.31,.52,.31,.85-.1,.62-.31,.84-.52,.34-.92,.34-.71-.11-.92-.34-.31-.51-.31-.84Zm2.25,15.37h-2.08v-12.15h2.08v12.15Z"/><path class="w" d="M958.98,460.08l.07,1.53c.93-1.17,2.14-1.75,3.64-1.75,2.57,0,3.86,1.45,3.88,4.35v8.03h-2.08v-8.04c0-.88-.21-1.52-.6-1.94-.39-.42-1.01-.63-1.84-.63-.67,0-1.27,.18-1.78,.54-.51,.36-.91,.83-1.19,1.42v8.66h-2.08v-12.15h1.96Z"/><path class="w" d="M969.76,471.14c0-.36,.11-.66,.32-.9,.21-.24,.53-.36,.96-.36s.75,.12,.97,.36,.33,.54,.33,.9-.11,.63-.33,.86-.54,.35-.97,.35-.75-.12-.96-.35c-.21-.23-.32-.52-.32-.86Z"/><path class="w" d="M980.81,472.45c-1.65,0-2.99-.54-4.02-1.62-1.03-1.08-1.55-2.53-1.55-4.34v-.38c0-1.21,.23-2.28,.69-3.23,.46-.95,1.1-1.69,1.93-2.22,.83-.54,1.72-.8,2.69-.8,1.58,0,2.81,.52,3.68,1.56s1.31,2.53,1.31,4.47v.86h-8.23c.03,1.2,.38,2.17,1.05,2.9,.67,.74,1.52,1.11,2.55,1.11,.73,0,1.36-.15,1.87-.45,.51-.3,.95-.7,1.34-1.19l1.27,.99c-1.02,1.56-2.55,2.35-4.58,2.35Zm-.26-10.89c-.84,0-1.54,.31-2.11,.92-.57,.61-.92,1.47-1.06,2.57h6.09v-.16c-.06-1.06-.34-1.87-.85-2.45-.51-.58-1.2-.87-2.07-.87Z"/><path class="w" d="M992.03,464.51l2.7-4.44h2.43l-3.97,6.01,4.1,6.14h-2.4l-2.81-4.55-2.81,4.55h-2.41l4.1-6.14-3.98-6.01h2.4l2.66,4.44Z"/><path class="w" d="M1006.85,472.23c-.12-.24-.22-.67-.29-1.28-.97,1-2.12,1.5-3.46,1.5-1.2,0-2.18-.34-2.95-1.02-.77-.68-1.15-1.54-1.15-2.58,0-1.27,.48-2.25,1.44-2.95,.96-.7,2.32-1.05,4.06-1.05h2.02v-.95c0-.73-.22-1.3-.65-1.73-.43-.43-1.08-.65-1.92-.65-.74,0-1.36,.19-1.86,.56s-.75,.83-.75,1.36h-2.09c0-.61,.22-1.19,.65-1.76,.43-.56,1.01-1.01,1.75-1.34s1.55-.49,2.43-.49c1.4,0,2.5,.35,3.29,1.05,.79,.7,1.21,1.66,1.24,2.89v5.59c0,1.12,.14,2,.43,2.66v.18h-2.18Zm-3.45-1.58c.65,0,1.27-.17,1.85-.51s1.01-.77,1.27-1.31v-2.49h-1.63c-2.55,0-3.82,.75-3.82,2.23,0,.65,.22,1.16,.65,1.53s.99,.55,1.67,.55Z"/><path class="w" d="M1013.81,460.08l.06,1.35c.89-1.05,2.09-1.57,3.61-1.57,1.7,0,2.86,.65,3.47,1.95,.4-.58,.93-1.06,1.58-1.42s1.41-.54,2.3-.54c2.67,0,4.02,1.41,4.07,4.23v8.14h-2.08v-8.02c0-.87-.2-1.52-.59-1.95-.4-.43-1.06-.65-2-.65-.77,0-1.41,.23-1.92,.69-.51,.46-.81,1.08-.89,1.86v8.06h-2.09v-7.96c0-1.77-.87-2.65-2.59-2.65-1.36,0-2.29,.58-2.8,1.74v8.87h-2.08v-12.15h1.97Z"/><path class="w" d="M1042.28,466.29c0,1.85-.42,3.34-1.27,4.47-.85,1.13-1.99,1.7-3.44,1.7s-2.63-.47-3.48-1.4v5.85h-2.08v-16.82h1.9l.1,1.35c.85-1.05,2.02-1.57,3.53-1.57s2.62,.55,3.46,1.65,1.27,2.63,1.27,4.59v.19Zm-2.08-.24c0-1.37-.29-2.45-.88-3.25s-1.38-1.19-2.4-1.19c-1.26,0-2.2,.56-2.83,1.67v5.81c.62,1.11,1.57,1.66,2.85,1.66,1,0,1.79-.4,2.38-1.19,.59-.79,.88-1.96,.88-3.52Z"/><path class="w" d="M1047.18,472.23h-2.08v-17.25h2.08v17.25Z"/><path class="w" d="M1055.54,472.45c-1.65,0-2.99-.54-4.02-1.62-1.03-1.08-1.55-2.53-1.55-4.34v-.38c0-1.21,.23-2.28,.69-3.23,.46-.95,1.1-1.69,1.93-2.22,.83-.54,1.72-.8,2.69-.8,1.58,0,2.81,.52,3.68,1.56s1.31,2.53,1.31,4.47v.86h-8.23c.03,1.2,.38,2.17,1.05,2.9,.67,.74,1.52,1.11,2.55,1.11,.73,0,1.36-.15,1.87-.45,.51-.3,.95-.7,1.34-1.19l1.27,.99c-1.02,1.56-2.55,2.35-4.58,2.35Zm-.26-10.89c-.84,0-1.54,.31-2.11,.92-.57,.61-.92,1.47-1.06,2.57h6.09v-.16c-.06-1.06-.34-1.87-.85-2.45-.51-.58-1.2-.87-2.07-.87Z"/><path class="w" d="M1062.73,471.14c0-.36,.11-.66,.32-.9,.21-.24,.53-.36,.96-.36s.75,.12,.97,.36,.33,.54,.33,.9-.11,.63-.33,.86-.54,.35-.97,.35-.75-.12-.96-.35c-.21-.23-.32-.52-.32-.86Z"/><path class="w" d="M1068.25,466.05c0-1.89,.44-3.4,1.31-4.52,.88-1.12,2.04-1.68,3.48-1.68s2.64,.52,3.47,1.57l.1-1.35h1.9v11.86c0,1.57-.47,2.81-1.4,3.72-.93,.91-2.18,1.36-3.76,1.36-.88,0-1.73-.19-2.57-.56s-1.48-.89-1.92-1.54l1.08-1.25c.89,1.1,1.98,1.65,3.27,1.65,1.01,0,1.8-.28,2.36-.85s.85-1.37,.85-2.4v-1.04c-.83,.96-1.96,1.44-3.4,1.44s-2.57-.57-3.45-1.72-1.32-2.71-1.32-4.68Zm2.09,.24c0,1.37,.28,2.45,.84,3.23,.56,.78,1.35,1.17,2.36,1.17,1.31,0,2.27-.6,2.89-1.79v-5.55c-.64-1.16-1.59-1.74-2.86-1.74-1.01,0-1.8,.39-2.37,1.18s-.85,1.95-.85,3.49Z"/><path class="w" d="M1085.04,466.6l-1.3,1.36v4.27h-2.08v-17.25h2.08v10.43l1.11-1.34,3.78-4h2.53l-4.73,5.08,5.28,7.08h-2.44l-4.23-5.63Z"/><path class="w" d="M1098.12,472.45c-1.65,0-2.99-.54-4.02-1.62-1.03-1.08-1.55-2.53-1.55-4.34v-.38c0-1.21,.23-2.28,.69-3.23,.46-.95,1.1-1.69,1.93-2.22,.83-.54,1.72-.8,2.69-.8,1.58,0,2.81,.52,3.68,1.56s1.31,2.53,1.31,4.47v.86h-8.23c.03,1.2,.38,2.17,1.05,2.9,.67,.74,1.52,1.11,2.55,1.11,.73,0,1.36-.15,1.87-.45,.51-.3,.95-.7,1.34-1.19l1.27,.99c-1.02,1.56-2.55,2.35-4.58,2.35Zm-.26-10.89c-.84,0-1.54,.31-2.11,.92-.57,.61-.92,1.47-1.06,2.57h6.09v-.16c-.06-1.06-.34-1.87-.85-2.45-.51-.58-1.2-.87-2.07-.87Z"/></g><g><path class="w" d="M858.54,715.23h-2.17v-7.56h-8.24v7.56h-2.16v-16.35h2.16v7.03h8.24v-7.03h2.17v16.35Z"/><path class="w" d="M861.49,709.04c0-1.19,.23-2.26,.7-3.21,.47-.95,1.12-1.68,1.95-2.2s1.79-.78,2.86-.78c1.65,0,2.99,.57,4.01,1.72,1.02,1.15,1.53,2.67,1.53,4.57v.15c0,1.18-.23,2.24-.68,3.18s-1.1,1.67-1.94,2.2c-.84,.52-1.81,.79-2.9,.79-1.65,0-2.98-.57-4-1.72-1.02-1.15-1.53-2.66-1.53-4.55v-.15Zm2.09,.25c0,1.35,.31,2.43,.94,3.25,.62,.82,1.46,1.22,2.51,1.22s1.89-.41,2.52-1.24,.93-1.99,.93-3.48c0-1.33-.32-2.41-.95-3.24s-1.47-1.24-2.52-1.24-1.85,.41-2.48,1.22c-.63,.82-.94,1.98-.94,3.5Z"/><path class="w" d="M882.24,712c0-.56-.21-1-.63-1.31s-1.16-.58-2.21-.8-1.89-.49-2.5-.81c-.62-.31-1.07-.69-1.37-1.12-.3-.43-.44-.95-.44-1.55,0-1,.42-1.84,1.26-2.53,.84-.69,1.92-1.03,3.23-1.03,1.38,0,2.5,.36,3.35,1.07,.86,.71,1.29,1.62,1.29,2.73h-2.09c0-.57-.24-1.06-.72-1.47-.48-.41-1.09-.62-1.83-.62s-1.35,.17-1.77,.49c-.43,.33-.64,.76-.64,1.29,0,.5,.2,.88,.59,1.13,.4,.25,1.11,.5,2.15,.73,1.04,.23,1.88,.51,2.52,.83,.64,.32,1.12,.71,1.43,1.16s.47,1,.47,1.66c0,1.09-.43,1.96-1.3,2.61-.87,.66-2,.98-3.38,.98-.97,0-1.83-.17-2.58-.52-.75-.34-1.33-.83-1.76-1.44-.42-.62-.63-1.29-.63-2h2.08c.04,.7,.32,1.25,.84,1.66s1.21,.61,2.06,.61c.79,0,1.42-.16,1.89-.48s.71-.74,.71-1.27Z"/><path class="w" d="M889.84,700.13v2.94h2.27v1.61h-2.27v7.54c0,.49,.1,.85,.3,1.1,.2,.24,.55,.37,1.03,.37,.24,0,.57-.04,.99-.13v1.67c-.55,.15-1.08,.22-1.59,.22-.93,0-1.63-.28-2.1-.84-.47-.56-.71-1.36-.71-2.39v-7.54h-2.21v-1.61h2.21v-2.94h2.08Z"/><path class="w" d="M894.47,714.14c0-.36,.11-.66,.32-.9,.21-.24,.53-.36,.96-.36s.75,.12,.97,.36c.22,.24,.33,.54,.33,.9s-.11,.63-.33,.86c-.22,.23-.54,.35-.97,.35s-.75-.12-.96-.35c-.21-.23-.32-.52-.32-.86Zm.01-9.92c0-.36,.11-.66,.32-.9,.21-.24,.53-.36,.96-.36s.75,.12,.97,.36c.22,.24,.33,.54,.33,.9s-.11,.63-.33,.87c-.22,.23-.54,.35-.97,.35s-.75-.12-.96-.35c-.21-.23-.32-.52-.32-.87Z"/><path class="w" d="M913.3,715.23c-.12-.24-.22-.67-.29-1.28-.97,1-2.12,1.5-3.46,1.5-1.2,0-2.18-.34-2.95-1.02-.77-.68-1.15-1.54-1.15-2.58,0-1.26,.48-2.25,1.44-2.95,.96-.7,2.32-1.05,4.06-1.05h2.02v-.95c0-.73-.22-1.3-.65-1.74-.43-.43-1.08-.65-1.92-.65-.74,0-1.36,.19-1.86,.56-.5,.37-.75,.83-.75,1.36h-2.09c0-.61,.22-1.19,.65-1.76,.43-.56,1.01-1.01,1.75-1.34,.74-.33,1.55-.49,2.43-.49,1.4,0,2.5,.35,3.29,1.05,.79,.7,1.21,1.66,1.24,2.89v5.59c0,1.12,.14,2,.43,2.66v.18h-2.18Zm-3.45-1.58c.65,0,1.27-.17,1.85-.51s1.01-.77,1.27-1.31v-2.49h-1.63c-2.55,0-3.82,.75-3.82,2.23,0,.65,.22,1.16,.65,1.53,.43,.37,.99,.55,1.67,.55Z"/><path class="w" d="M928.57,709.29c0,1.85-.42,3.34-1.27,4.47-.85,1.13-1.99,1.7-3.44,1.7s-2.63-.47-3.48-1.4v5.85h-2.08v-16.82h1.9l.1,1.35c.85-1.05,2.02-1.57,3.53-1.57s2.62,.55,3.46,1.65,1.27,2.63,1.27,4.59v.19Zm-2.08-.24c0-1.37-.29-2.45-.88-3.25-.58-.79-1.38-1.19-2.4-1.19-1.26,0-2.2,.56-2.83,1.67v5.81c.62,1.11,1.57,1.66,2.85,1.66,1,0,1.79-.4,2.38-1.19,.59-.79,.88-1.96,.88-3.52Z"/><path class="w" d="M931.22,699.85c0-.34,.1-.62,.31-.85,.21-.23,.51-.35,.92-.35s.71,.12,.92,.35c.21,.23,.31,.52,.31,.85s-.1,.62-.31,.84-.52,.34-.92,.34-.71-.11-.92-.34-.31-.5-.31-.84Zm2.25,15.37h-2.08v-12.15h2.08v12.15Z"/><path class="w" d="M936.84,714.14c0-.36,.11-.66,.32-.9,.21-.24,.53-.36,.96-.36s.75,.12,.97,.36c.22,.24,.33,.54,.33,.9s-.11,.63-.33,.86c-.22,.23-.54,.35-.97,.35s-.75-.12-.96-.35c-.21-.23-.32-.52-.32-.86Z"/><path class="w" d="M947.89,715.45c-1.65,0-2.99-.54-4.02-1.62-1.03-1.08-1.55-2.53-1.55-4.34v-.38c0-1.21,.23-2.28,.69-3.23,.46-.95,1.1-1.69,1.93-2.22,.83-.54,1.72-.8,2.69-.8,1.58,0,2.81,.52,3.68,1.56,.88,1.04,1.31,2.53,1.31,4.47v.86h-8.23c.03,1.2,.38,2.17,1.05,2.9s1.52,1.11,2.55,1.11c.73,0,1.36-.15,1.87-.45,.51-.3,.95-.7,1.34-1.19l1.27,.99c-1.02,1.56-2.55,2.35-4.58,2.35Zm-.26-10.89c-.84,0-1.54,.31-2.11,.92-.57,.61-.92,1.47-1.06,2.57h6.09v-.16c-.06-1.06-.34-1.87-.85-2.45-.51-.58-1.2-.87-2.07-.87Z"/><path class="w" d="M959.11,707.51l2.7-4.44h2.43l-3.97,6.01,4.1,6.14h-2.4l-2.81-4.55-2.81,4.55h-2.41l4.1-6.14-3.98-6.01h2.4l2.66,4.44Z"/><path class="w" d="M973.93,715.23c-.12-.24-.22-.67-.29-1.28-.97,1-2.12,1.5-3.46,1.5-1.2,0-2.18-.34-2.95-1.02-.77-.68-1.15-1.54-1.15-2.58,0-1.26,.48-2.25,1.44-2.95,.96-.7,2.32-1.05,4.06-1.05h2.02v-.95c0-.73-.22-1.3-.65-1.74-.43-.43-1.08-.65-1.92-.65-.74,0-1.36,.19-1.86,.56-.5,.37-.75,.83-.75,1.36h-2.09c0-.61,.22-1.19,.65-1.76,.43-.56,1.01-1.01,1.75-1.34,.74-.33,1.55-.49,2.43-.49,1.4,0,2.5,.35,3.29,1.05,.79,.7,1.21,1.66,1.24,2.89v5.59c0,1.12,.14,2,.43,2.66v.18h-2.18Zm-3.45-1.58c.65,0,1.27-.17,1.85-.51s1.01-.77,1.27-1.31v-2.49h-1.63c-2.55,0-3.82,.75-3.82,2.23,0,.65,.22,1.16,.65,1.53,.43,.37,.99,.55,1.67,.55Z"/><path class="w" d="M980.9,703.08l.06,1.35c.89-1.05,2.09-1.57,3.61-1.57,1.7,0,2.86,.65,3.47,1.95,.4-.58,.93-1.06,1.58-1.42s1.41-.54,2.3-.54c2.67,0,4.02,1.41,4.07,4.23v8.14h-2.08v-8.02c0-.87-.2-1.52-.59-1.95s-1.06-.65-2-.65c-.77,0-1.41,.23-1.92,.69-.51,.46-.81,1.08-.89,1.86v8.06h-2.09v-7.96c0-1.77-.87-2.65-2.59-2.65-1.36,0-2.29,.58-2.8,1.74v8.87h-2.08v-12.15h1.97Z"/><path class="w" d="M1009.37,709.29c0,1.85-.42,3.34-1.27,4.47-.85,1.13-1.99,1.7-3.44,1.7s-2.63-.47-3.48-1.4v5.85h-2.08v-16.82h1.9l.1,1.35c.85-1.05,2.02-1.57,3.53-1.57s2.62,.55,3.46,1.65,1.27,2.63,1.27,4.59v.19Zm-2.08-.24c0-1.37-.29-2.45-.88-3.25-.58-.79-1.38-1.19-2.4-1.19-1.26,0-2.2,.56-2.83,1.67v5.81c.62,1.11,1.57,1.66,2.85,1.66,1,0,1.79-.4,2.38-1.19,.59-.79,.88-1.96,.88-3.52Z"/><path class="w" d="M1014.26,715.23h-2.08v-17.25h2.08v17.25Z"/><path class="w" d="M1022.63,715.45c-1.65,0-2.99-.54-4.02-1.62-1.03-1.08-1.55-2.53-1.55-4.34v-.38c0-1.21,.23-2.28,.69-3.23,.46-.95,1.1-1.69,1.93-2.22,.83-.54,1.72-.8,2.69-.8,1.58,0,2.81,.52,3.68,1.56,.88,1.04,1.31,2.53,1.31,4.47v.86h-8.23c.03,1.2,.38,2.17,1.05,2.9s1.52,1.11,2.55,1.11c.73,0,1.36-.15,1.87-.45,.51-.3,.95-.7,1.34-1.19l1.27,.99c-1.02,1.56-2.55,2.35-4.58,2.35Zm-.26-10.89c-.84,0-1.54,.31-2.11,.92-.57,.61-.92,1.47-1.06,2.57h6.09v-.16c-.06-1.06-.34-1.87-.85-2.45-.51-.58-1.2-.87-2.07-.87Z"/><path class="w" d="M1029.82,714.14c0-.36,.11-.66,.32-.9,.21-.24,.53-.36,.96-.36s.75,.12,.97,.36c.22,.24,.33,.54,.33,.9s-.11,.63-.33,.86c-.22,.23-.54,.35-.97,.35s-.75-.12-.96-.35c-.21-.23-.32-.52-.32-.86Z"/><path class="w" d="M1035.33,709.05c0-1.89,.44-3.4,1.31-4.52,.88-1.12,2.04-1.68,3.48-1.68s2.64,.52,3.47,1.57l.1-1.35h1.9v11.86c0,1.57-.47,2.81-1.4,3.72-.93,.91-2.18,1.36-3.76,1.36-.88,0-1.73-.19-2.57-.56-.84-.37-1.48-.89-1.92-1.54l1.08-1.25c.89,1.1,1.98,1.65,3.27,1.65,1.01,0,1.8-.29,2.36-.85,.57-.57,.85-1.37,.85-2.4v-1.04c-.83,.96-1.96,1.44-3.4,1.44s-2.57-.57-3.45-1.72-1.32-2.71-1.32-4.68Zm2.09,.24c0,1.37,.28,2.45,.84,3.23,.56,.78,1.35,1.17,2.36,1.17,1.31,0,2.27-.6,2.89-1.79v-5.55c-.64-1.16-1.59-1.74-2.86-1.74-1.01,0-1.8,.39-2.37,1.18s-.85,1.95-.85,3.49Z"/><path class="w" d="M1052.12,709.6l-1.3,1.36v4.27h-2.08v-17.25h2.08v10.43l1.11-1.34,3.78-4h2.53l-4.73,5.08,5.28,7.08h-2.44l-4.23-5.63Z"/><path class="w" d="M1065.2,715.45c-1.65,0-2.99-.54-4.02-1.62-1.03-1.08-1.55-2.53-1.55-4.34v-.38c0-1.21,.23-2.28,.69-3.23,.46-.95,1.1-1.69,1.93-2.22,.83-.54,1.72-.8,2.69-.8,1.58,0,2.81,.52,3.68,1.56,.88,1.04,1.31,2.53,1.31,4.47v.86h-8.23c.03,1.2,.38,2.17,1.05,2.9s1.52,1.11,2.55,1.11c.73,0,1.36-.15,1.87-.45,.51-.3,.95-.7,1.34-1.19l1.27,.99c-1.02,1.56-2.55,2.35-4.58,2.35Zm-.26-10.89c-.84,0-1.54,.31-2.11,.92-.57,.61-.92,1.47-1.06,2.57h6.09v-.16c-.06-1.06-.34-1.87-.85-2.45-.51-.58-1.2-.87-2.07-.87Z"/></g><g><path class="w" d="M858.54,969.23h-2.17v-7.56h-8.24v7.56h-2.16v-16.35h2.16v7.03h8.24v-7.03h2.17v16.35Z"/><path class="w" d="M861.49,963.04c0-1.19,.23-2.26,.7-3.21,.47-.95,1.12-1.68,1.95-2.2s1.79-.77,2.86-.77c1.65,0,2.99,.57,4.01,1.72,1.02,1.15,1.53,2.67,1.53,4.57v.15c0,1.18-.23,2.24-.68,3.18-.45,.94-1.1,1.67-1.94,2.2-.84,.52-1.81,.79-2.9,.79-1.65,0-2.98-.57-4-1.72-1.02-1.15-1.53-2.66-1.53-4.55v-.15Zm2.09,.25c0,1.35,.31,2.43,.94,3.25,.62,.82,1.46,1.22,2.51,1.22s1.89-.41,2.52-1.24c.62-.83,.93-1.99,.93-3.48,0-1.33-.32-2.41-.95-3.24-.63-.83-1.47-1.24-2.52-1.24s-1.85,.41-2.48,1.22c-.63,.82-.94,1.98-.94,3.5Z"/><path class="w" d="M882.24,966c0-.56-.21-1-.63-1.31-.42-.31-1.16-.58-2.21-.8s-1.89-.49-2.5-.81c-.62-.31-1.07-.69-1.37-1.12-.3-.43-.44-.95-.44-1.55,0-1,.42-1.84,1.26-2.53,.84-.69,1.92-1.03,3.23-1.03,1.38,0,2.5,.36,3.35,1.07,.86,.71,1.29,1.62,1.29,2.73h-2.09c0-.57-.24-1.06-.72-1.47-.48-.41-1.09-.62-1.83-.62s-1.35,.16-1.77,.49c-.43,.33-.64,.76-.64,1.29,0,.5,.2,.88,.59,1.13,.4,.25,1.11,.5,2.15,.73,1.04,.23,1.88,.51,2.52,.83,.64,.32,1.12,.71,1.43,1.16,.31,.45,.47,1,.47,1.66,0,1.08-.43,1.96-1.3,2.61-.87,.65-2,.98-3.38,.98-.97,0-1.83-.17-2.58-.52-.75-.34-1.33-.83-1.76-1.44-.42-.62-.63-1.29-.63-2h2.08c.04,.7,.32,1.25,.84,1.66,.52,.41,1.21,.61,2.06,.61,.79,0,1.42-.16,1.89-.48,.48-.32,.71-.74,.71-1.28Z"/><path class="w" d="M889.84,954.13v2.94h2.27v1.61h-2.27v7.54c0,.49,.1,.85,.3,1.1,.2,.24,.55,.37,1.03,.37,.24,0,.57-.04,.99-.13v1.67c-.55,.15-1.08,.22-1.59,.22-.93,0-1.63-.28-2.1-.84-.47-.56-.71-1.36-.71-2.39v-7.54h-2.21v-1.61h2.21v-2.94h2.08Z"/><path class="w" d="M894.47,968.14c0-.36,.11-.66,.32-.9,.21-.24,.53-.36,.96-.36s.75,.12,.97,.36c.22,.24,.33,.54,.33,.9s-.11,.63-.33,.87c-.22,.23-.54,.35-.97,.35s-.75-.12-.96-.35c-.21-.23-.32-.52-.32-.87Zm.01-9.92c0-.36,.11-.66,.32-.9,.21-.24,.53-.36,.96-.36s.75,.12,.97,.36c.22,.24,.33,.54,.33,.9s-.11,.63-.33,.86c-.22,.23-.54,.35-.97,.35s-.75-.12-.96-.35c-.21-.23-.32-.52-.32-.86Z"/><path class="w" d="M908.06,969.23h-2.08v-17.25h2.08v17.25Z"/><path class="w" d="M910.83,963.04c0-1.19,.23-2.26,.7-3.21,.47-.95,1.12-1.68,1.95-2.2s1.79-.77,2.86-.77c1.65,0,2.99,.57,4.01,1.72,1.02,1.15,1.53,2.67,1.53,4.57v.15c0,1.18-.23,2.24-.68,3.18-.45,.94-1.1,1.67-1.94,2.2-.84,.52-1.81,.79-2.9,.79-1.65,0-2.98-.57-4-1.72-1.02-1.15-1.53-2.66-1.53-4.55v-.15Zm2.09,.25c0,1.35,.31,2.43,.94,3.25,.62,.82,1.46,1.22,2.51,1.22s1.89-.41,2.52-1.24c.62-.83,.93-1.99,.93-3.48,0-1.33-.32-2.41-.95-3.24-.63-.83-1.47-1.24-2.52-1.24s-1.85,.41-2.48,1.22c-.63,.82-.94,1.98-.94,3.5Z"/><path class="w" d="M924,963.05c0-1.89,.44-3.4,1.31-4.52,.88-1.12,2.04-1.68,3.48-1.68s2.64,.52,3.47,1.57l.1-1.35h1.9v11.86c0,1.57-.47,2.81-1.4,3.72-.93,.91-2.18,1.36-3.76,1.36-.88,0-1.73-.19-2.57-.56-.84-.38-1.48-.89-1.92-1.54l1.08-1.25c.89,1.1,1.98,1.65,3.27,1.65,1.01,0,1.8-.28,2.36-.85,.57-.57,.85-1.37,.85-2.4v-1.04c-.83,.96-1.96,1.44-3.4,1.44s-2.57-.57-3.45-1.72-1.32-2.71-1.32-4.68Zm2.09,.24c0,1.37,.28,2.45,.84,3.23,.56,.78,1.35,1.17,2.36,1.17,1.31,0,2.27-.59,2.89-1.79v-5.55c-.64-1.16-1.59-1.74-2.86-1.74-1.01,0-1.8,.39-2.37,1.18s-.85,1.95-.85,3.49Z"/><path class="w" d="M937.41,953.85c0-.34,.1-.62,.31-.85,.21-.23,.51-.35,.92-.35s.71,.12,.92,.35c.21,.23,.31,.52,.31,.85s-.1,.62-.31,.84-.52,.34-.92,.34-.71-.11-.92-.34-.31-.51-.31-.84Zm2.25,15.38h-2.08v-12.15h2.08v12.15Z"/><path class="w" d="M944.95,957.08l.07,1.53c.93-1.17,2.14-1.75,3.64-1.75,2.57,0,3.86,1.45,3.88,4.35v8.03h-2.08v-8.04c0-.88-.21-1.52-.6-1.94-.39-.42-1.01-.63-1.84-.63-.67,0-1.27,.18-1.78,.54-.51,.36-.91,.83-1.19,1.42v8.66h-2.08v-12.15h1.96Z"/><path class="w" d="M955.72,968.14c0-.36,.11-.66,.32-.9,.21-.24,.53-.36,.96-.36s.75,.12,.97,.36c.22,.24,.33,.54,.33,.9s-.11,.63-.33,.87c-.22,.23-.54,.35-.97,.35s-.75-.12-.96-.35c-.21-.23-.32-.52-.32-.87Z"/><path class="w" d="M966.6,967.76c.74,0,1.39-.22,1.94-.67,.55-.45,.86-1.01,.92-1.68h1.96c-.04,.7-.28,1.36-.72,1.99s-1.03,1.13-1.77,1.5c-.74,.37-1.52,.56-2.34,.56-1.65,0-2.97-.55-3.95-1.66-.98-1.1-1.47-2.62-1.47-4.53v-.35c0-1.18,.22-2.24,.65-3.16s1.06-1.64,1.87-2.14c.81-.51,1.77-.76,2.88-.76,1.36,0,2.49,.41,3.4,1.22,.9,.82,1.38,1.88,1.44,3.18h-1.96c-.06-.79-.36-1.43-.89-1.94-.54-.5-1.2-.76-1.98-.76-1.06,0-1.87,.38-2.45,1.14s-.87,1.86-.87,3.3v.39c0,1.4,.29,2.48,.86,3.23,.58,.76,1.4,1.13,2.47,1.13Z"/><path class="w" d="M981.27,968.03c-.81,.95-2,1.43-3.56,1.43-1.29,0-2.28-.38-2.96-1.13-.68-.75-1.02-1.87-1.03-3.34v-7.91h2.08v7.85c0,1.84,.75,2.76,2.25,2.76,1.59,0,2.64-.59,3.17-1.77v-8.84h2.08v12.15h-1.98l-.04-1.2Z"/><path class="w" d="M992.32,958.94c-.31-.05-.65-.08-1.02-.08-1.36,0-2.29,.58-2.77,1.74v8.62h-2.08v-12.15h2.02l.03,1.4c.68-1.08,1.65-1.63,2.9-1.63,.4,0,.71,.05,.92,.16v1.93Z"/><path class="w" d="M994.24,953.85c0-.34,.1-.62,.31-.85,.21-.23,.51-.35,.92-.35s.71,.12,.92,.35c.21,.23,.31,.52,.31,.85s-.1,.62-.31,.84-.52,.34-.92,.34-.71-.11-.92-.34-.31-.51-.31-.84Zm2.25,15.38h-2.08v-12.15h2.08v12.15Z"/><path class="w" d="M1002.63,954.13v2.94h2.27v1.61h-2.27v7.54c0,.49,.1,.85,.3,1.1,.2,.24,.55,.37,1.03,.37,.24,0,.57-.04,.99-.13v1.67c-.55,.15-1.08,.22-1.59,.22-.93,0-1.63-.28-2.1-.84-.47-.56-.71-1.36-.71-2.39v-7.54h-2.21v-1.61h2.21v-2.94h2.08Z"/><path class="w" d="M1011.3,966.18l2.83-9.11h2.22l-4.88,14.03c-.76,2.02-1.96,3.03-3.61,3.03l-.39-.03-.78-.15v-1.68l.56,.04c.7,0,1.25-.14,1.65-.43,.39-.28,.72-.8,.97-1.56l.46-1.24-4.33-12.02h2.27l3.03,9.11Z"/><path class="w" d="M1017.05,968.14c0-.36,.11-.66,.32-.9,.21-.24,.53-.36,.96-.36s.75,.12,.97,.36c.22,.24,.33,.54,.33,.9s-.11,.63-.33,.87c-.22,.23-.54,.35-.97,.35s-.75-.12-.96-.35c-.21-.23-.32-.52-.32-.87Z"/><path class="w" d="M1022.56,963.05c0-1.89,.44-3.4,1.31-4.52,.88-1.12,2.04-1.68,3.48-1.68s2.64,.52,3.47,1.57l.1-1.35h1.9v11.86c0,1.57-.47,2.81-1.4,3.72-.93,.91-2.18,1.36-3.76,1.36-.88,0-1.73-.19-2.57-.56-.84-.38-1.48-.89-1.92-1.54l1.08-1.25c.89,1.1,1.98,1.65,3.27,1.65,1.01,0,1.8-.28,2.36-.85,.57-.57,.85-1.37,.85-2.4v-1.04c-.83,.96-1.96,1.44-3.4,1.44s-2.57-.57-3.45-1.72-1.32-2.71-1.32-4.68Zm2.09,.24c0,1.37,.28,2.45,.84,3.23,.56,.78,1.35,1.17,2.36,1.17,1.31,0,2.27-.59,2.89-1.79v-5.55c-.64-1.16-1.59-1.74-2.86-1.74-1.01,0-1.8,.39-2.37,1.18s-.85,1.95-.85,3.49Z"/><path class="w" d="M1039.35,963.6l-1.3,1.36v4.27h-2.08v-17.25h2.08v10.43l1.11-1.34,3.78-4h2.53l-4.73,5.08,5.28,7.08h-2.44l-4.23-5.63Z"/><path class="w" d="M1052.43,969.45c-1.65,0-2.99-.54-4.02-1.62s-1.55-2.53-1.55-4.34v-.38c0-1.21,.23-2.28,.69-3.23,.46-.95,1.1-1.69,1.93-2.22s1.72-.8,2.69-.8c1.58,0,2.81,.52,3.68,1.56,.88,1.04,1.31,2.53,1.31,4.47v.87h-8.23c.03,1.2,.38,2.17,1.05,2.9,.67,.74,1.52,1.11,2.55,1.11,.73,0,1.36-.15,1.87-.45,.51-.3,.95-.7,1.34-1.19l1.27,.99c-1.02,1.57-2.55,2.35-4.58,2.35Zm-.26-10.89c-.84,0-1.54,.3-2.11,.92s-.92,1.47-1.06,2.57h6.09v-.16c-.06-1.06-.34-1.87-.85-2.45s-1.2-.87-2.07-.87Z"/></g></svg>